<svg xmlns="http://www.w3.org/2000/svg" viewBox="0 0 235.86 289.2"><defs><style>.cls-1{fill:#669091;}.cls-1,.cls-2,.cls-3,.cls-8,.cls-9{fill-rule:evenodd;}.cls-2,.cls-7{fill:#e7e7de;}.cls-3,.cls-4{fill:#35626c;}.cls-5{fill:#fff;}.cls-6,.cls-9{fill:#fefdf4;}.cls-8{fill:#e8e9e7;}</style></defs><g id="Layer_2" data-name="Layer 2"><g id="cloud"><path class="cls-1" d="M169.82,60.76h-.28A60.71,60.71,0,0,0,51.86,46.27a41.61,41.61,0,0,0-6.25-.47,40.71,40.71,0,1,0,0,81.41l124.21,0a33.21,33.21,0,1,0,0-66.42Z"/><path class="cls-2" d="M164.92,55h-.28A60.72,60.72,0,0,0,47,40.48,41.37,41.37,0,0,0,40.71,40a40.71,40.71,0,0,0,0,81.42l124.21,0a33.22,33.22,0,0,0,0-66.43Z"/><path class="cls-3" d="M134.08,68.05a52.66,52.66,0,0,0-19.33-11.47A44.28,44.28,0,0,0,101,54.37c-9.6,0-21.11,3.22-33.31,13.52a3.55,3.55,0,0,0-1.71,3,3.58,3.58,0,0,0,6.25,2.39c29.32-24.76,53.26-3.72,56.84-.26a3.58,3.58,0,1,0,5-5Z"/><path class="cls-3" d="M121,81.9c-2.69-2.34-10.2-8-20.19-8-6,0-12.85,2-20.1,7.94a3.57,3.57,0,0,0,1.75,6.7A3.49,3.49,0,0,0,84.33,88h0l0,0a4.24,4.24,0,0,0,.65-.54c16.09-13.22,29.22-2.22,31.56,0l.21.2.15.15v0a3.55,3.55,0,0,0,2.24.81A3.58,3.58,0,0,0,121,81.9Z"/><circle class="cls-4" cx="100.8" cy="102.02" r="10.33" transform="translate(-42.62 101.16) rotate(-45)"/><path class="cls-3" d="M51.44,57.5a3.57,3.57,0,0,0,5.46,3l0,0,.57-.49.07-.05c19.75-16.71,40.21-21.83,60.85-15.21A69.2,69.2,0,0,1,143.7,59.71a3.55,3.55,0,0,0,2.81,1.38,3.59,3.59,0,0,0,2.94-5.63h0l-.09-.09a3.4,3.4,0,0,0-.79-.77,75.58,75.58,0,0,0-27.71-16.41A63.67,63.67,0,0,0,101.17,35C87.38,35,70.86,39.63,53.3,54.37A3.58,3.58,0,0,0,51.44,57.5Z"/></g><g id="computer"><rect class="cls-5" x="130.49" y="159.87" width="5.75" height="0.33"/><rect class="cls-5" x="130.49" y="123.06" width="5.75" height="9.2"/><rect class="cls-5" x="130.49" y="141.47" width="5.75" height="9.2"/><polygon class="cls-6" points="206.27 232.35 26.77 231.5 25.12 124.87 206.27 124.87 206.27 232.35"/><path class="cls-4" d="M203.66,124.87V229.06h-172V124.87h172m0-6.35h-172a6.42,6.42,0,0,0-6.5,6.35V229.06a6.42,6.42,0,0,0,6.5,6.34h172a6.42,6.42,0,0,0,6.5-6.34V124.87A6.42,6.42,0,0,0,203.66,118.52Z"/><rect class="cls-4" x="99.53" y="234.89" width="36.85" height="22.54"/><path class="cls-4" d="M152.43,253.57l-64.87,0a8.7,8.7,0,0,1-3.07,5.78l67.49,0c3,0,3.1-1.44,3.1-1.44V255C155.08,253.44,152.43,253.57,152.43,253.57Z"/><path class="cls-4" d="M84.25,259.25l64.87.05a8.69,8.69,0,0,1,3.06-5.78l-67.49,0c-3,0-3.09,1.44-3.09,1.44v2.84C81.6,259.38,84.25,259.25,84.25,259.25Z"/><rect class="cls-7" x="123.44" y="153.89" width="66.38" height="21.78"/><rect class="cls-7" x="41.85" y="153.89" width="66.38" height="21.78"/><rect class="cls-7" x="41.85" y="183.23" width="138.57" height="6.83"/><rect class="cls-7" x="41.85" y="135.68" width="130.36" height="6.84"/><rect class="cls-7" x="41.85" y="199.56" width="149.06" height="6.84"/><rect class="cls-7" x="41.85" y="211.7" width="109.27" height="6.84"/><path class="cls-3" d="M162.22,179.39h67.39a6.24,6.24,0,0,1,6.25,6.24V283a6.24,6.24,0,0,1-6.25,6.24H162.22A6.23,6.23,0,0,1,156,283V185.63A6.23,6.23,0,0,1,162.22,179.39Z"/><path class="cls-8" d="M195.92,280.73a2.85,2.85,0,1,1-2.85,2.84A2.85,2.85,0,0,1,195.92,280.73Z"/><path class="cls-9" d="M159.86,190.62H232V278H159.86Z"/><rect class="cls-7" x="166.93" y="253.94" width="46.11" height="5.4"/><rect class="cls-7" x="166.93" y="261.85" width="56.83" height="3.15"/><rect class="cls-7" x="166.93" y="267.45" width="52.31" height="3.15"/><rect class="cls-7" x="166.93" y="204.73" width="52.31" height="5.4"/><rect class="cls-7" x="166.93" y="212.64" width="56.83" height="3.14"/><rect class="cls-7" x="166.93" y="218.23" width="46.11" height="3.15"/><rect class="cls-7" x="166.93" y="196.34" width="56.81" height="3.15"/><rect class="cls-7" x="166.45" y="227.12" width="25.04" height="22.72"/><rect class="cls-7" x="197.1" y="227.12" width="25.04" height="22.72"/></g></g></svg>
