<svg xmlns="http://www.w3.org/2000/svg" viewBox="0 0 283.73 415.44"><defs><style>.cls-1{fill:#008891;}.cls-2{fill:#fff;}.cls-3{fill:#669091;}.cls-10,.cls-3,.cls-4,.cls-5,.cls-9{fill-rule:evenodd;}.cls-4,.cls-7{fill:#e7e7de;}.cls-5,.cls-6{fill:#35626c;}.cls-10,.cls-8{fill:#fefdf4;}.cls-9{fill:#e8e9e7;}</style></defs><g id="Layer_2" data-name="Layer 2"><rect class="cls-1" width="283.73" height="415.44"/></g><g id="cloud"><rect class="cls-2" x="129.3" y="192.87" width="5" height="8"/><path class="cls-3" d="M201.17,75.19h-.27A60.72,60.72,0,0,0,83.21,60.7,41.61,41.61,0,0,0,77,60.23a40.71,40.71,0,1,0,0,81.41l124.21,0a33.21,33.21,0,0,0,0-66.42Z"/><path class="cls-4" d="M196.27,69.39H196A60.71,60.71,0,0,0,78.31,54.91a41.61,41.61,0,0,0-6.25-.48,40.71,40.71,0,0,0,0,81.42l124.21,0a33.22,33.22,0,0,0,0-66.43Z"/><path class="cls-5" d="M165.43,82.48A52.59,52.59,0,0,0,146.11,71a44.38,44.38,0,0,0-13.74-2.21c-9.61,0-21.12,3.22-33.32,13.52a3.55,3.55,0,0,0-1.71,3,3.58,3.58,0,0,0,6.25,2.39C132.92,63,156.85,84,160.43,87.49a3.58,3.58,0,1,0,5-5Z"/><path class="cls-5" d="M152.31,96.33c-2.7-2.34-10.21-8-20.2-8-6,0-12.85,2-20.1,7.94a3.57,3.57,0,0,0,1.75,6.7,3.49,3.49,0,0,0,1.92-.57h0l0,0a4.24,4.24,0,0,0,.65-.54c16.09-13.22,29.22-2.22,31.56,0l.21.2.15.15v0a3.55,3.55,0,0,0,2.24.81,3.58,3.58,0,0,0,1.78-6.69Z"/><circle class="cls-6" cx="132.15" cy="116.45" r="10.33" transform="translate(-43.64 127.55) rotate(-45)"/><path class="cls-5" d="M82.79,71.93a3.57,3.57,0,0,0,5.46,3l0,0,.57-.49.07,0c19.75-16.71,40.21-21.83,60.86-15.21a69.23,69.23,0,0,1,25.28,14.88,3.55,3.55,0,0,0,2.81,1.38,3.59,3.59,0,0,0,2.94-5.63h0l-.09-.09a3.35,3.35,0,0,0-.78-.77,75.75,75.75,0,0,0-27.72-16.41,63.62,63.62,0,0,0-19.7-3.16c-13.79,0-30.31,4.61-47.87,19.35A3.58,3.58,0,0,0,82.79,71.93Z"/><rect class="cls-2" x="129.37" y="209.72" width="5" height="8"/></g><g id="computer"><rect class="cls-2" x="148.08" y="270.28" width="5.75" height="0.33"/><rect class="cls-7" x="129.3" y="192.87" width="5" height="8"/><rect class="cls-2" x="148.08" y="233.46" width="5.75" height="9.2"/><rect class="cls-2" x="148.08" y="251.87" width="5.75" height="9.2"/><polygon class="cls-8" points="223.86 342.75 44.37 341.9 42.71 235.27 223.86 235.27 223.86 342.75"/><path class="cls-6" d="M221.25,235.27V339.46h-172V235.27h172m0-6.35h-172a6.43,6.43,0,0,0-6.51,6.35V339.46a6.42,6.42,0,0,0,6.51,6.34h172a6.42,6.42,0,0,0,6.51-6.34V235.27A6.43,6.43,0,0,0,221.25,228.92Z"/><rect class="cls-6" x="117.13" y="345.29" width="36.85" height="22.54"/><path class="cls-6" d="M170,364l-64.87-.05a8.66,8.66,0,0,1-3.06,5.78l67.49,0c3,0,3.09-1.44,3.09-1.44V365.4C172.67,363.84,170,364,170,364Z"/><path class="cls-6" d="M101.84,369.65l64.87.05a8.73,8.73,0,0,1,3.06-5.78l-67.48,0c-3,0-3.1,1.44-3.1,1.44v2.84C99.19,369.78,101.84,369.65,101.84,369.65Z"/><rect class="cls-7" x="141.03" y="264.3" width="66.38" height="21.78"/><rect class="cls-7" x="59.45" y="264.3" width="66.38" height="21.78"/><rect class="cls-7" x="59.45" y="293.64" width="138.57" height="6.83"/><rect class="cls-7" x="59.45" y="246.08" width="130.36" height="6.84"/><rect class="cls-7" x="59.45" y="309.96" width="149.06" height="6.84"/><rect class="cls-7" x="59.45" y="322.11" width="109.27" height="6.84"/><path class="cls-5" d="M179.81,289.79H247.2a6.24,6.24,0,0,1,6.25,6.24v97.33a6.25,6.25,0,0,1-6.25,6.25H179.81a6.24,6.24,0,0,1-6.23-6.25V296A6.23,6.23,0,0,1,179.81,289.79Z"/><path class="cls-9" d="M213.51,391.13a2.85,2.85,0,1,1-2.84,2.85A2.84,2.84,0,0,1,213.51,391.13Z"/><path class="cls-10" d="M177.45,301h72.11v87.35H177.45Z"/><rect class="cls-7" x="184.52" y="364.34" width="46.11" height="5.4"/><rect class="cls-7" x="184.52" y="372.25" width="56.83" height="3.15"/><rect class="cls-7" x="184.52" y="377.85" width="52.31" height="3.15"/><rect class="cls-7" x="184.52" y="315.13" width="52.31" height="5.4"/><rect class="cls-7" x="184.52" y="323.05" width="56.83" height="3.14"/><rect class="cls-7" x="184.52" y="328.63" width="46.11" height="3.15"/><rect class="cls-7" x="184.52" y="306.74" width="56.81" height="3.15"/><rect class="cls-7" x="184.04" y="337.52" width="25.04" height="22.72"/><rect class="cls-7" x="214.69" y="337.52" width="25.04" height="22.72"/><rect class="cls-7" x="129.37" y="209.72" width="5" height="8"/><rect class="cls-2" x="129.33" y="158.47" width="5" height="8"/><rect class="cls-2" x="129.4" y="175.32" width="5" height="8"/><rect class="cls-7" x="129.33" y="158.47" width="5" height="8"/><rect class="cls-7" x="129.4" y="175.32" width="5" height="8"/></g></svg>