<svg xmlns="http://www.w3.org/2000/svg" viewBox="0 0 438 550"><defs><style>.cls-1{fill:#d8d8d8;}.cls-2{fill:#9b9b9b;}</style></defs><g id="Layer_1" data-name="Layer 1"><rect class="cls-1" x="-740.5" y="-264.5" width="1919" height="1079"/><path d="M1178-264V814H-740V-264H1178m1-1H-741V815H1179V-265Z"/></g><g id="Layer_2" data-name="Layer 2"><path class="cls-2" d="M263.32,275.72c-.53,10.87-.93,18.68-1.25,26.49-.05,1.17-.42,1.54-1.59,1.54q-18.54-.06-37.07,0c-1.34,0-1.62-.5-1.62-1.71q0-19.59-.14-39.17c0-1.44.64-1.76,1.78-1.95,13.14-2.16,26.29-4.31,39.42-6.54,1.45-.25,1.42.31,1.37,1.4C263.85,263.45,263.52,271.12,263.32,275.72Z"/><path class="cls-2" d="M221.55,238c0-5.79.06-11.59,0-17.38,0-1.49.3-2,1.9-2.12q21.32-1.2,42.62-2.63c1.71-.12,2,.36,1.82,1.89q-1.44,15.11-2.72,30.23a1.94,1.94,0,0,1-1.93,2.09q-19.77,3.45-39.52,7.12c-1.88.35-2-.29-2-1.82.06-5.79,0-11.59,0-17.38Z"/><path class="cls-2" d="M177.51,304c-1.48,0-2.16-.21-2.31-1.78-.79-8.36-1.73-16.7-2.7-25-.17-1.46.87-1.62,1.92-1.95,9.45-3,32.69-10.29,34.84-11,1.24-.43,1.9-.39,2,1,.68,8.37,2.8,32.9,3.27,36.8.17,1.43-.09,2-1.87,2C206.75,303.93,183.3,304,177.51,304Z"/><path class="cls-2" d="M209.2,259.69c-5.81,2.25-32.33,9.17-37.21,9.71a.77.77,0,0,1-.84-.72c-1.19-11.65-2.25-43.1-1.66-48.81a1.15,1.15,0,0,1,1-.87q18.77.39,37.53.62c1.15,0,1.62.58,1.58,2.84-.07,3.94,1.15,30.22.75,35.93A2.06,2.06,0,0,1,209.2,259.69Z"/><path class="cls-2" d="M220.37,213.58c3.79-3.9,7.45-7.19,11.2-10.38,9.1-7.75,18.59-14.93,29.63-19.77A40.2,40.2,0,0,1,273.42,180a16.28,16.28,0,0,1,5.4.39c4.75,1.13,6.53,5.28,4.09,9.51a14.57,14.57,0,0,1-6.09,5.57,173.26,173.26,0,0,1-40.63,15C231.13,211.7,226,212.71,220.37,213.58Z"/><path class="cls-2" d="M214.62,211.83c-.21-.17-.21-.68-.21-1,0-1-.07-2-.1-3-.12-5.76-.45-11.62.05-17.38.31-3.52.71-7.13,1.36-10.6a9.42,9.42,0,0,1,3.32-6.09,14.66,14.66,0,0,1,6.38-2.93c6-1,10,3.36,9.25,9.88A33.83,33.83,0,0,1,231.08,192a62.21,62.21,0,0,1-8.32,11.8c-1.47,1.77-3,3.49-4.58,5.15a17.69,17.69,0,0,1-3.06,2.87C214.88,211.92,214.73,211.92,214.62,211.83Z"/><path class="cls-2" d="M205.55,209.73a64.46,64.46,0,0,1-22-7,5.51,5.51,0,0,1-1.48-1.15,3.2,3.2,0,0,1-1-3.06c.34-1.29,1.5-1.62,2.62-1.75a12,12,0,0,1,6.27,1.34C196.05,200.82,200.89,205.1,205.55,209.73Z"/></g></svg>