<svg xmlns="http://www.w3.org/2000/svg" viewBox="0 0 87.61 101.87"><defs><style>.cls-1{fill:#008891;}.cls-2{fill:#00587a;}.cls-3{fill:#34626c;}.cls-4{fill:#0f3057;}</style></defs><g id="Layer_2" data-name="Layer 2"><g id="Layer_1-2" data-name="Layer 1"><path class="cls-1" d="M71.81,80.26c-.4,8.31-.71,14.27-1,20.24,0,.89-.31,1.18-1.21,1.17q-14.16,0-28.32,0c-1,0-1.23-.37-1.23-1.3q0-15-.11-29.92c0-1.11.48-1.35,1.36-1.49q15.06-2.47,30.11-5c1.11-.19,1.09.24,1,1.07C72.21,70.89,72,76.75,71.81,80.26Z"/><path class="cls-2" d="M39.9,51.44c0-4.42,0-8.85,0-13.27,0-1.14.23-1.55,1.46-1.62q16.29-.93,32.56-2c1.3-.09,1.5.27,1.39,1.44Q74.19,47.53,73.2,59.07c-.08,1-.4,1.42-1.47,1.6q-15.11,2.64-30.19,5.44c-1.44.27-1.55-.22-1.54-1.39,0-4.42,0-8.85,0-13.28Z"/><path class="cls-3" d="M6.26,101.87c-1.13,0-1.66-.17-1.77-1.37-.6-6.38-1.32-12.75-2.06-19.13-.13-1.11.66-1.23,1.46-1.48,7.22-2.28,25-7.86,26.62-8.42.95-.33,1.45-.3,1.54.79.52,6.39,2.14,25.13,2.5,28.1.13,1.1-.07,1.53-1.43,1.51C28.59,101.81,10.68,101.83,6.26,101.87Z"/><path class="cls-4" d="M30.46,68C26,69.74,5.77,75,2,75.43a.58.58,0,0,1-.64-.55C.49,66-.33,42,.13,37.6a.87.87,0,0,1,.8-.67q14.34.3,28.67.47c.88,0,1.24.44,1.21,2.17-.06,3,.88,23.09.57,27.45A1.6,1.6,0,0,1,30.46,68Z"/><path class="cls-4" d="M39,32.79c2.9-3,5.69-5.49,8.55-7.93,7-5.92,14.21-11.41,22.64-15.1a30.55,30.55,0,0,1,9.34-2.59,12.37,12.37,0,0,1,4.12.29c3.63.87,5,4,3.12,7.27A11.17,11.17,0,0,1,82.12,19a131.72,131.72,0,0,1-31,11.45C47.22,31.35,43.32,32.12,39,32.79Z"/><path class="cls-1" d="M34.61,31.46c-.17-.14-.17-.53-.17-.77,0-.77,0-1.54-.07-2.31a125.16,125.16,0,0,1,0-13.28c.23-2.69.54-5.45,1-8.1A7.21,7.21,0,0,1,38,2.35,11.19,11.19,0,0,1,42.85.11c4.6-.75,7.66,2.57,7.08,7.55a26.06,26.06,0,0,1-2.75,8.61,47.63,47.63,0,0,1-6.35,9c-1.13,1.35-2.29,2.67-3.51,3.93A13.13,13.13,0,0,1,35,31.41C34.81,31.52,34.69,31.52,34.61,31.46Z"/><path class="cls-2" d="M27.68,29.85a49.11,49.11,0,0,1-16.8-5.32,4.2,4.2,0,0,1-1.13-.88A2.46,2.46,0,0,1,9,21.32c.26-1,1.15-1.24,2-1.34a9.1,9.1,0,0,1,4.8,1C20.42,23,24.12,26.31,27.68,29.85Z"/></g></g></svg>