<svg xmlns="http://www.w3.org/2000/svg" viewBox="0 0 242.72 251.72"><defs><style>.cls-1,.cls-9{fill:#35626c;}.cls-2{fill:#e7e7de;}.cls-3{fill:#f1efef;}.cls-4{opacity:0.2;}.cls-5{fill:#008891;}.cls-6{fill:#f0efef;}.cls-7{fill:#fff;}.cls-11,.cls-8{fill:#fefdf4;}.cls-10,.cls-11,.cls-9{fill-rule:evenodd;}.cls-10{fill:#e8e9e7;}.cls-12{opacity:0.1;}.cls-13{fill:#025576;}</style></defs><g id="Layer_2" data-name="Layer 2"><g id="keyboard"><path class="cls-1" d="M191.34,20.44V9.86a6.45,6.45,0,0,0-6.45-6.45H9.58A6.45,6.45,0,0,0,3.13,9.86V62.38a6.44,6.44,0,0,0,6.45,6.45H184.89a6.45,6.45,0,0,0,6.45-6.45V20.44"/><rect class="cls-2" width="188.21" height="65.42" rx="6.45"/><rect class="cls-3" x="35.67" y="50.27" width="71.48" height="11.29" rx="0.41"/><g class="cls-4"><path class="cls-5" d="M106.73,50.68V61.15H36.08V50.68h70.65m0-.82H36.08a.83.83,0,0,0-.83.82V61.15a.83.83,0,0,0,.83.83h70.65a.83.83,0,0,0,.83-.83V50.68A.83.83,0,0,0,106.73,49.86Z"/></g><rect class="cls-6" x="6.47" y="5.66" width="11.3" height="11.29" rx="0.41"/><g class="cls-4"><path class="cls-5" d="M17.35,6.07V16.53H6.88V6.07H17.35m0-.83H6.88a.83.83,0,0,0-.82.83V16.53a.83.83,0,0,0,.82.83H17.35a.83.83,0,0,0,.83-.83V6.07A.83.83,0,0,0,17.35,5.24Z"/></g><path class="cls-3" d="M32.25,17H21.78a.42.42,0,0,1-.41-.42V6.07a.41.41,0,0,1,.41-.41H32.25a.41.41,0,0,1,.41.41V16.53A.41.41,0,0,1,32.25,17Z"/><g class="cls-4"><path class="cls-5" d="M32.25,6.07V16.53H21.78V6.07H32.25m0-.83H21.78a.82.82,0,0,0-.82.83V16.53a.82.82,0,0,0,.82.83H32.25a.82.82,0,0,0,.82-.83V6.07A.82.82,0,0,0,32.25,5.24Z"/></g><path class="cls-3" d="M47.15,17H36.68a.41.41,0,0,1-.41-.42V6.07a.41.41,0,0,1,.41-.41H47.15a.41.41,0,0,1,.41.41V16.53A.42.42,0,0,1,47.15,17Z"/><g class="cls-4"><path class="cls-5" d="M47.15,6.07V16.53H36.68V6.07H47.15m0-.83H36.68a.82.82,0,0,0-.82.83V16.53a.82.82,0,0,0,.82.83H47.15a.83.83,0,0,0,.82-.83V6.07A.83.83,0,0,0,47.15,5.24Z"/></g><path class="cls-3" d="M62,17H51.58a.42.42,0,0,1-.42-.42V6.07a.41.41,0,0,1,.42-.41H62a.41.41,0,0,1,.42.41V16.53A.42.42,0,0,1,62,17Z"/><g class="cls-4"><path class="cls-5" d="M62.05,6.07V16.53H51.58V6.07H62.05m0-.83H51.58a.83.83,0,0,0-.83.83V16.53a.83.83,0,0,0,.83.83H62.05a.83.83,0,0,0,.82-.83V6.07A.83.83,0,0,0,62.05,5.24Z"/></g><path class="cls-3" d="M76.94,17H66.48a.42.42,0,0,1-.42-.42V6.07a.41.41,0,0,1,.42-.41H76.94a.41.41,0,0,1,.41.41V16.53A.41.41,0,0,1,76.94,17Z"/><g class="cls-4"><path class="cls-5" d="M76.94,6.07V16.53H66.48V6.07H76.94m0-.83H66.48a.83.83,0,0,0-.83.83V16.53a.83.83,0,0,0,.83.83H76.94a.83.83,0,0,0,.83-.83V6.07A.83.83,0,0,0,76.94,5.24Z"/></g><path class="cls-3" d="M81.38,5.66H91.84a.41.41,0,0,1,.41.41V16.54a.41.41,0,0,1-.41.41H81.38a.41.41,0,0,1-.41-.41V6.07A.42.42,0,0,1,81.38,5.66Z"/><g class="cls-4"><path class="cls-5" d="M91.84,6.07V16.53H81.37V6.07H91.84m0-.83H81.37a.83.83,0,0,0-.83.83V16.53a.83.83,0,0,0,.83.83H91.84a.83.83,0,0,0,.83-.83V6.07A.83.83,0,0,0,91.84,5.24Z"/></g><path class="cls-3" d="M106.73,17H96.27a.41.41,0,0,1-.41-.42V6.07a.41.41,0,0,1,.41-.41h10.46a.41.41,0,0,1,.42.41V16.53A.42.42,0,0,1,106.73,17Z"/><g class="cls-4"><path class="cls-5" d="M106.73,6.07V16.53H96.27V6.07h10.46m0-.83H96.27a.83.83,0,0,0-.82.83V16.53a.83.83,0,0,0,.82.83h10.46a.83.83,0,0,0,.83-.83V6.07A.83.83,0,0,0,106.73,5.24Z"/></g><path class="cls-3" d="M111.17,5.66h10.47a.41.41,0,0,1,.41.41V16.54a.41.41,0,0,1-.41.41H111.17a.41.41,0,0,1-.41-.41V6.07A.42.42,0,0,1,111.17,5.66Z"/><g class="cls-4"><path class="cls-5" d="M121.64,6.07V16.53H111.17V6.07h10.47m0-.83H111.17a.83.83,0,0,0-.83.83V16.53a.83.83,0,0,0,.83.83h10.47a.83.83,0,0,0,.82-.83V6.07A.83.83,0,0,0,121.64,5.24Z"/></g><path class="cls-3" d="M126.07,5.66h10.46a.41.41,0,0,1,.41.41V16.54a.41.41,0,0,1-.41.41H126.06a.41.41,0,0,1-.41-.41V6.07A.42.42,0,0,1,126.07,5.66Z"/><g class="cls-4"><path class="cls-5" d="M136.53,6.07V16.53H126.06V6.07h10.47m0-.83H126.06a.83.83,0,0,0-.82.83V16.53a.83.83,0,0,0,.82.83h10.47a.83.83,0,0,0,.83-.83V6.07A.83.83,0,0,0,136.53,5.24Z"/></g><path class="cls-3" d="M141,5.66h10.46a.41.41,0,0,1,.41.41V16.54a.41.41,0,0,1-.41.41H141a.41.41,0,0,1-.41-.41V6.07A.42.42,0,0,1,141,5.66Z"/><g class="cls-4"><path class="cls-5" d="M151.43,6.07V16.53H141V6.07h10.47m0-.83H141a.83.83,0,0,0-.82.83V16.53a.83.83,0,0,0,.82.83h10.47a.82.82,0,0,0,.82-.83V6.07A.82.82,0,0,0,151.43,5.24Z"/></g><path class="cls-3" d="M166.33,17H155.86a.41.41,0,0,1-.41-.42V6.07a.41.41,0,0,1,.41-.41h10.47a.41.41,0,0,1,.41.41V16.53A.42.42,0,0,1,166.33,17Z"/><g class="cls-4"><path class="cls-5" d="M166.33,6.07V16.53H155.86V6.07h10.47m0-.83H155.86a.83.83,0,0,0-.83.83V16.53a.83.83,0,0,0,.83.83h10.47a.83.83,0,0,0,.82-.83V6.07A.83.83,0,0,0,166.33,5.24Z"/></g><path class="cls-3" d="M170.76,5.66h10.46a.41.41,0,0,1,.41.41V16.54a.41.41,0,0,1-.41.41H170.76a.41.41,0,0,1-.41-.41V6.07A.42.42,0,0,1,170.76,5.66Z"/><g class="cls-4"><path class="cls-5" d="M181.23,6.07V16.53H170.76V6.07h10.47m0-.83H170.76a.83.83,0,0,0-.83.83V16.53a.83.83,0,0,0,.83.83h10.47a.83.83,0,0,0,.82-.83V6.07A.83.83,0,0,0,181.23,5.24Z"/></g><path class="cls-3" d="M47.15,32.37H36.68a.41.41,0,0,1-.41-.41V21.5a.41.41,0,0,1,.41-.42H47.15a.41.41,0,0,1,.41.42V32A.42.42,0,0,1,47.15,32.37Z"/><g class="cls-4"><path class="cls-5" d="M47.15,21.49V32H36.68V21.49H47.15m0-.82H36.68a.81.81,0,0,0-.82.82V32a.82.82,0,0,0,.82.82H47.15A.82.82,0,0,0,48,32V21.49A.82.82,0,0,0,47.15,20.67Z"/></g><path class="cls-3" d="M62.05,32.37H51.58a.42.42,0,0,1-.42-.41V21.5a.42.42,0,0,1,.42-.42H62.05a.41.41,0,0,1,.41.42V32A.42.42,0,0,1,62.05,32.37Z"/><g class="cls-4"><path class="cls-5" d="M62.05,21.49V32H51.58V21.49H62.05m0-.82H51.58a.82.82,0,0,0-.83.82V32a.83.83,0,0,0,.83.82H62.05a.82.82,0,0,0,.82-.82V21.49A.82.82,0,0,0,62.05,20.67Z"/></g><path class="cls-3" d="M66.48,21.08H76.94a.41.41,0,0,1,.41.41V32a.41.41,0,0,1-.41.41H66.48a.42.42,0,0,1-.42-.42V21.49A.41.41,0,0,1,66.48,21.08Z"/><g class="cls-4"><path class="cls-5" d="M76.94,21.49V32H66.48V21.49H76.94m0-.82H66.48a.82.82,0,0,0-.83.82V32a.83.83,0,0,0,.83.82H76.94a.83.83,0,0,0,.83-.82V21.49A.82.82,0,0,0,76.94,20.67Z"/></g><path class="cls-3" d="M91.84,32.37H81.37A.42.42,0,0,1,81,32V21.5a.41.41,0,0,1,.41-.42H91.84a.41.41,0,0,1,.41.42V32A.41.41,0,0,1,91.84,32.37Z"/><g class="cls-4"><path class="cls-5" d="M91.84,21.49V32H81.37V21.49H91.84m0-.82H81.37a.83.83,0,0,0-.83.82V32a.83.83,0,0,0,.83.82H91.84a.83.83,0,0,0,.83-.82V21.49A.83.83,0,0,0,91.84,20.67Z"/></g><path class="cls-3" d="M106.73,32.37H96.27a.41.41,0,0,1-.41-.41V21.5a.41.41,0,0,1,.41-.42h10.46a.41.41,0,0,1,.42.42V32A.41.41,0,0,1,106.73,32.37Z"/><g class="cls-4"><path class="cls-5" d="M106.73,21.49V32H96.27V21.49h10.46m0-.82H96.27a.82.82,0,0,0-.82.82V32a.82.82,0,0,0,.82.82h10.46a.83.83,0,0,0,.83-.82V21.49A.82.82,0,0,0,106.73,20.67Z"/></g><path class="cls-3" d="M121.64,32.37H111.17a.42.42,0,0,1-.42-.41V21.5a.42.42,0,0,1,.42-.42h10.47a.41.41,0,0,1,.41.42V32A.42.42,0,0,1,121.64,32.37Z"/><g class="cls-4"><path class="cls-5" d="M121.64,21.49V32H111.17V21.49h10.47m0-.82H111.17a.82.82,0,0,0-.83.82V32a.83.83,0,0,0,.83.82h10.47a.82.82,0,0,0,.82-.82V21.49A.82.82,0,0,0,121.64,20.67Z"/></g><path class="cls-3" d="M136.53,32.37H126.06a.42.42,0,0,1-.41-.41V21.5a.41.41,0,0,1,.41-.42h10.47a.41.41,0,0,1,.41.42V32A.41.41,0,0,1,136.53,32.37Z"/><g class="cls-4"><path class="cls-5" d="M136.53,21.49V32H126.06V21.49h10.47m0-.82H126.06a.82.82,0,0,0-.82.82V32a.82.82,0,0,0,.82.82h10.47a.83.83,0,0,0,.83-.82V21.49A.82.82,0,0,0,136.53,20.67Z"/></g><path class="cls-3" d="M151.43,32.37H141a.41.41,0,0,1-.41-.41V21.5a.41.41,0,0,1,.41-.42h10.47a.41.41,0,0,1,.41.42V32A.41.41,0,0,1,151.43,32.37Z"/><g class="cls-4"><path class="cls-5" d="M151.43,21.49V32H141V21.49h10.47m0-.82H141a.82.82,0,0,0-.82.82V32a.82.82,0,0,0,.82.82h10.47a.82.82,0,0,0,.82-.82V21.49A.81.81,0,0,0,151.43,20.67Z"/></g><path class="cls-3" d="M155.85,21.08h10.47a.41.41,0,0,1,.41.41V32a.42.42,0,0,1-.42.42H155.86a.41.41,0,0,1-.41-.41V21.49A.41.41,0,0,1,155.85,21.08Z"/><g class="cls-4"><path class="cls-5" d="M166.33,21.49V32H155.86V21.49h10.47m0-.82H155.86a.82.82,0,0,0-.83.82V32a.83.83,0,0,0,.83.82h10.47a.82.82,0,0,0,.82-.82V21.49A.82.82,0,0,0,166.33,20.67Z"/></g><path class="cls-3" d="M181.23,32.37H170.76a.42.42,0,0,1-.42-.41V21.5a.42.42,0,0,1,.42-.42h10.47a.41.41,0,0,1,.41.42V32A.42.42,0,0,1,181.23,32.37Z"/><g class="cls-4"><path class="cls-5" d="M181.23,21.49V32H170.76V21.49h10.47m0-.82H170.76a.82.82,0,0,0-.83.82V32a.83.83,0,0,0,.83.82h10.47a.82.82,0,0,0,.82-.82V21.49A.82.82,0,0,0,181.23,20.67Z"/></g><rect class="cls-3" x="36.27" y="35.67" width="11.29" height="11.29" rx="0.41"/><g class="cls-4"><path class="cls-5" d="M47.15,36.09V46.56H36.68V36.09H47.15m0-.83H36.68a.82.82,0,0,0-.82.83V46.56a.82.82,0,0,0,.82.82H47.15a.82.82,0,0,0,.82-.82V36.09A.83.83,0,0,0,47.15,35.26Z"/></g><path class="cls-3" d="M62.05,47H51.58a.42.42,0,0,1-.42-.41V36.09a.42.42,0,0,1,.42-.42H62.05a.42.42,0,0,1,.41.42V46.56A.42.42,0,0,1,62.05,47Z"/><g class="cls-4"><path class="cls-5" d="M62.05,36.09V46.56H51.58V36.09H62.05m0-.83H51.58a.83.83,0,0,0-.83.83V46.56a.83.83,0,0,0,.83.82H62.05a.82.82,0,0,0,.82-.82V36.09A.83.83,0,0,0,62.05,35.26Z"/></g><path class="cls-3" d="M66.47,35.67H76.94a.42.42,0,0,1,.42.42V46.55a.41.41,0,0,1-.41.41H66.47a.41.41,0,0,1-.41-.41V36.09A.41.41,0,0,1,66.47,35.67Z"/><g class="cls-4"><path class="cls-5" d="M76.94,36.09V46.56H66.48V36.09H76.94m0-.83H66.48a.83.83,0,0,0-.83.83V46.56a.83.83,0,0,0,.83.82H76.94a.83.83,0,0,0,.83-.82V36.09A.83.83,0,0,0,76.94,35.26Z"/></g><rect class="cls-3" x="80.96" y="35.67" width="11.29" height="11.29" rx="0.41"/><g class="cls-4"><path class="cls-5" d="M91.84,36.09V46.56H81.37V36.09H91.84m0-.83H81.37a.83.83,0,0,0-.83.83V46.56a.83.83,0,0,0,.83.82H91.84a.83.83,0,0,0,.83-.82V36.09A.83.83,0,0,0,91.84,35.26Z"/></g><rect class="cls-3" x="95.86" y="35.67" width="11.29" height="11.29" rx="0.41"/><g class="cls-4"><path class="cls-5" d="M106.73,36.09V46.56H96.27V36.09h10.46m0-.83H96.27a.83.83,0,0,0-.82.83V46.56a.82.82,0,0,0,.82.82h10.46a.83.83,0,0,0,.83-.82V36.09A.83.83,0,0,0,106.73,35.26Z"/></g><rect class="cls-3" x="110.75" y="35.67" width="11.29" height="11.29" rx="0.41"/><g class="cls-4"><path class="cls-5" d="M121.64,36.09V46.56H111.17V36.09h10.47m0-.83H111.17a.83.83,0,0,0-.83.83V46.56a.83.83,0,0,0,.83.82h10.47a.82.82,0,0,0,.82-.82V36.09A.83.83,0,0,0,121.64,35.26Z"/></g><rect class="cls-3" x="125.65" y="35.67" width="11.29" height="11.29" rx="0.41"/><g class="cls-4"><path class="cls-5" d="M136.53,36.09V46.56H126.06V36.09h10.47m0-.83H126.06a.83.83,0,0,0-.82.83V46.56a.82.82,0,0,0,.82.82h10.47a.83.83,0,0,0,.83-.82V36.09A.83.83,0,0,0,136.53,35.26Z"/></g><rect class="cls-3" x="140.55" y="35.67" width="11.29" height="11.29" rx="0.41"/><g class="cls-4"><path class="cls-5" d="M151.43,36.09V46.56H141V36.09h10.47m0-.83H141a.83.83,0,0,0-.82.83V46.56a.82.82,0,0,0,.82.82h10.47a.82.82,0,0,0,.82-.82V36.09A.82.82,0,0,0,151.43,35.26Z"/></g><rect class="cls-3" x="155.45" y="35.67" width="11.29" height="11.29" rx="0.41"/><g class="cls-4"><path class="cls-5" d="M166.33,36.09V46.56H155.86V36.09h10.47m0-.83H155.86a.83.83,0,0,0-.83.83V46.56a.83.83,0,0,0,.83.82h10.47a.82.82,0,0,0,.82-.82V36.09A.83.83,0,0,0,166.33,35.26Z"/></g><rect class="cls-3" x="170.34" y="35.68" width="11.29" height="25.34" rx="0.41"/><g class="cls-4"><path class="cls-5" d="M181.23,36.09V60.6H170.76V36.09h10.47m0-.83H170.76a.83.83,0,0,0-.83.83V60.6a.83.83,0,0,0,.83.83h10.47a.83.83,0,0,0,.82-.83V36.09A.83.83,0,0,0,181.23,35.26Z"/></g><path class="cls-3" d="M121.64,61.56H111.17a.41.41,0,0,1-.42-.41V50.69a.42.42,0,0,1,.42-.42h10.47a.42.42,0,0,1,.41.42V61.15A.41.41,0,0,1,121.64,61.56Z"/><g class="cls-4"><path class="cls-5" d="M121.64,50.69V61.15H111.17V50.69h10.47m0-.83H111.17a.83.83,0,0,0-.83.83V61.15a.83.83,0,0,0,.83.83h10.47a.83.83,0,0,0,.82-.83V50.69A.83.83,0,0,0,121.64,49.86Z"/></g><path class="cls-3" d="M136.53,61.56H126.06a.41.41,0,0,1-.41-.41V50.69a.42.42,0,0,1,.41-.42h10.47a.41.41,0,0,1,.41.42V61.15A.41.41,0,0,1,136.53,61.56Z"/><g class="cls-4"><path class="cls-5" d="M136.53,50.69V61.15H126.06V50.69h10.47m0-.83H126.06a.83.83,0,0,0-.82.83V61.15a.83.83,0,0,0,.82.83h10.47a.83.83,0,0,0,.83-.83V50.69A.83.83,0,0,0,136.53,49.86Z"/></g><path class="cls-3" d="M151.43,61.56H141a.41.41,0,0,1-.41-.41V50.69a.41.41,0,0,1,.41-.42h10.47a.41.41,0,0,1,.41.42V61.15A.41.41,0,0,1,151.43,61.56Z"/><g class="cls-4"><path class="cls-5" d="M151.43,50.69V61.15H141V50.69h10.47m0-.83H141a.83.83,0,0,0-.82.83V61.15A.83.83,0,0,0,141,62h10.47a.82.82,0,0,0,.82-.83V50.69A.82.82,0,0,0,151.43,49.86Z"/></g><rect class="cls-3" x="155.45" y="50.27" width="11.29" height="11.29" rx="0.41"/><g class="cls-4"><path class="cls-5" d="M166.33,50.69V61.15H155.86V50.69h10.47m0-.83H155.86a.83.83,0,0,0-.83.83V61.15a.83.83,0,0,0,.83.83h10.47a.83.83,0,0,0,.82-.83V50.69A.83.83,0,0,0,166.33,49.86Z"/></g><rect class="cls-3" x="6.47" y="20.53" width="11.3" height="11.29" rx="0.41"/><g class="cls-4"><path class="cls-5" d="M17.35,20.94V31.41H6.88V20.94H17.35m0-.82H6.88a.82.82,0,0,0-.82.82V31.41a.83.83,0,0,0,.82.83H17.35a.83.83,0,0,0,.83-.83V20.94A.83.83,0,0,0,17.35,20.12Z"/></g><rect class="cls-3" x="21.54" y="20.53" width="11.29" height="11.29" rx="0.41"/><g class="cls-4"><path class="cls-5" d="M32.42,20.94V31.41H22V20.94H32.42m0-.82H22a.83.83,0,0,0-.83.82V31.41a.83.83,0,0,0,.83.83H32.42a.82.82,0,0,0,.82-.83V20.94A.82.82,0,0,0,32.42,20.12Z"/></g><rect class="cls-3" x="6.48" y="35.4" width="11.29" height="11.29" rx="0.41"/><g class="cls-4"><path class="cls-5" d="M17.35,35.81V46.28H6.88V35.81H17.35m0-.82H6.88a.82.82,0,0,0-.82.82V46.28a.82.82,0,0,0,.82.82H17.35a.82.82,0,0,0,.83-.82V35.81A.83.83,0,0,0,17.35,35Z"/></g><rect class="cls-3" x="21.46" y="35.4" width="11.29" height="11.29" rx="0.41"/><g class="cls-4"><path class="cls-5" d="M32.33,35.81V46.28H21.87V35.81H32.33m0-.82H21.87a.83.83,0,0,0-.83.82V46.28a.82.82,0,0,0,.83.82H32.33a.82.82,0,0,0,.83-.82V35.81A.83.83,0,0,0,32.33,35Z"/></g><rect class="cls-3" x="6.47" y="50.27" width="11.3" height="11.29" rx="0.41"/><g class="cls-4"><path class="cls-5" d="M17.35,50.68V61.15H6.88V50.68H17.35m0-.82H6.88a.82.82,0,0,0-.82.82V61.15a.83.83,0,0,0,.82.83H17.35a.83.83,0,0,0,.83-.83V50.68A.83.83,0,0,0,17.35,49.86Z"/></g><path class="cls-3" d="M22,50.27H32.5a.41.41,0,0,1,.41.41V61.15a.41.41,0,0,1-.41.41H22a.42.42,0,0,1-.42-.42V50.69A.41.41,0,0,1,22,50.27Z"/><g class="cls-4"><path class="cls-5" d="M32.5,50.68V61.15H22V50.68H32.5m0-.82H22a.82.82,0,0,0-.82.82V61.15A.83.83,0,0,0,22,62H32.5a.83.83,0,0,0,.83-.83V50.68A.83.83,0,0,0,32.5,49.86Z"/></g><rect class="cls-7" x="137.36" y="122.39" width="5.75" height="0.33"/><rect class="cls-7" x="137.36" y="85.58" width="5.75" height="9.2"/><rect class="cls-7" x="137.36" y="103.99" width="5.75" height="9.2"/><polygon class="cls-8" points="213.14 194.87 33.64 194.02 31.99 87.39 213.14 87.39 213.14 194.87"/><path class="cls-1" d="M210.53,87.39V191.58h-172V87.39h172m0-6.35h-172A6.42,6.42,0,0,0,32,87.39V191.58a6.42,6.42,0,0,0,6.5,6.34h172a6.42,6.42,0,0,0,6.5-6.34V87.39A6.42,6.42,0,0,0,210.53,81Z"/><rect class="cls-1" x="106.4" y="197.41" width="36.85" height="22.54"/><path class="cls-1" d="M159.3,216.09,94.42,216a8.66,8.66,0,0,1-3.06,5.78l67.49,0c3,0,3.09-1.43,3.09-1.43v-2.85C161.94,216,159.3,216.09,159.3,216.09Z"/><path class="cls-1" d="M91.11,221.77l64.88,0a8.69,8.69,0,0,1,3.06-5.78l-67.49,0c-3,0-3.09,1.44-3.09,1.44v2.84C88.47,221.9,91.11,221.77,91.11,221.77Z"/><rect class="cls-2" x="130.3" y="116.42" width="66.38" height="21.78"/><rect class="cls-2" x="48.72" y="116.42" width="66.38" height="21.78"/><rect class="cls-2" x="48.72" y="145.76" width="138.57" height="6.83"/><rect class="cls-2" x="48.72" y="98.2" width="130.36" height="6.84"/><rect class="cls-2" x="48.72" y="162.08" width="149.06" height="6.84"/><rect class="cls-2" x="48.72" y="174.23" width="109.27" height="6.84"/><path class="cls-9" d="M169.09,141.91h67.38a6.24,6.24,0,0,1,6.25,6.24v97.33a6.24,6.24,0,0,1-6.25,6.24H169.09a6.23,6.23,0,0,1-6.23-6.24V148.15A6.23,6.23,0,0,1,169.09,141.91Z"/><path class="cls-10" d="M202.79,243.25a2.85,2.85,0,1,1-2.85,2.85A2.84,2.84,0,0,1,202.79,243.25Z"/><path class="cls-11" d="M166.73,153.14h72.11v87.35H166.73Z"/><rect class="cls-2" x="173.79" y="216.46" width="46.11" height="5.4"/><rect class="cls-2" x="173.79" y="224.37" width="56.83" height="3.15"/><rect class="cls-2" x="173.79" y="229.97" width="52.31" height="3.15"/><rect class="cls-2" x="173.79" y="167.25" width="52.31" height="5.4"/><rect class="cls-2" x="173.79" y="175.16" width="56.83" height="3.14"/><rect class="cls-2" x="173.79" y="180.75" width="46.11" height="3.15"/><rect class="cls-2" x="173.79" y="158.86" width="56.81" height="3.15"/><rect class="cls-2" x="173.32" y="189.64" width="25.04" height="22.72"/><rect class="cls-2" x="203.96" y="189.64" width="25.04" height="22.72"/><path class="cls-1" d="M218.8,9.09c-10.18.64-13,6.31-13,8.93s-.22,30.3-.22,33.29,3.22,11.77,15.31,11.77c11.43,0,14.87-9.5,14.87-12.06V18c0-2.53-2.61-8.37-13.26-8.94"/><path class="cls-2" d="M203.22,15.88c0-2.77,3.22-9,15-9,12.1,0,15,6.33,15,9v33c0,2.55-3.45,12-14.88,12-12.09,0-15.31-8.77-15.31-11.76S203.22,18.66,203.22,15.88Z"/><path class="cls-1" d="M219.79,18.61a1.92,1.92,0,0,0-3.12,0,2.62,2.62,0,0,0-.55,1.65v4.17a2.74,2.74,0,0,0,.55,1.66,1.94,1.94,0,0,0,3.12,0,2.67,2.67,0,0,0,.55-1.66V20.26A2.62,2.62,0,0,0,219.79,18.61ZM218.44,25c-.11.12-.17.13-.21.13s-.1,0-.21-.13a1,1,0,0,1-.18-.6V20.26a1,1,0,0,1,.18-.59c.11-.13.17-.14.21-.14s.1,0,.21.14a1,1,0,0,1,.18.59v4.17A1,1,0,0,1,218.44,25Z"/><g class="cls-12"><path class="cls-13" d="M217.59,59.91c14.11,0,14.87-10.37,14.89-10.82l0-21.47c-2.05,8.69-7.57,23.07-21.59,23.07a25.6,25.6,0,0,1-7.14-1.1C204.21,52.23,206.64,59.91,217.59,59.91Z"/></g></g></g></svg>