<svg xmlns="http://www.w3.org/2000/svg" viewBox="0 0 283.73 415.44"><defs><style>.cls-1{fill:#008891;}.cls-2,.cls-9{fill:#35626c;}.cls-3{fill:#e7e7de;}.cls-4{fill:#f1efef;}.cls-5{opacity:0.2;}.cls-6{fill:#f0efef;}.cls-7{fill:#fff;}.cls-11,.cls-8{fill:#fefdf4;}.cls-10,.cls-11,.cls-9{fill-rule:evenodd;}.cls-10{fill:#e8e9e7;}.cls-12{opacity:0.1;}.cls-13{fill:#025576;}</style></defs><g id="Layer_2" data-name="Layer 2"><rect class="cls-1" width="283.73" height="415.44"/></g><g id="keyboard"><path class="cls-2" d="M210.72,63.33V52.75a6.44,6.44,0,0,0-6.45-6.44H29a6.44,6.44,0,0,0-6.45,6.44v52.53A6.44,6.44,0,0,0,29,111.72H204.27a6.44,6.44,0,0,0,6.45-6.44V63.33"/><rect class="cls-3" x="19.38" y="42.89" width="188.21" height="65.42" rx="6.45"/><rect class="cls-4" x="55.05" y="93.17" width="71.48" height="11.29" rx="0.41"/><g class="cls-5"><path class="cls-1" d="M126.12,93.58V104H55.46V93.58h70.66m0-.83H55.46a.83.83,0,0,0-.82.83V104a.83.83,0,0,0,.82.83h70.66A.83.83,0,0,0,127,104V93.58A.83.83,0,0,0,126.12,92.75Z"/></g><rect class="cls-6" x="25.86" y="48.55" width="11.3" height="11.29" rx="0.41"/><g class="cls-5"><path class="cls-1" d="M36.74,49V59.43H26.27V49H36.74m0-.82H26.27a.83.83,0,0,0-.83.82V59.43a.84.84,0,0,0,.83.83H36.74a.83.83,0,0,0,.82-.83V49A.82.82,0,0,0,36.74,48.14Z"/></g><path class="cls-4" d="M51.64,59.84H41.17a.41.41,0,0,1-.41-.41V49a.41.41,0,0,1,.41-.41H51.64A.41.41,0,0,1,52,49V59.43A.41.41,0,0,1,51.64,59.84Z"/><g class="cls-5"><path class="cls-1" d="M51.64,49V59.43H41.17V49H51.64m0-.82H41.17a.82.82,0,0,0-.83.82V59.43a.83.83,0,0,0,.83.83H51.64a.83.83,0,0,0,.82-.83V49A.82.82,0,0,0,51.64,48.14Z"/></g><path class="cls-4" d="M66.53,59.84H56.06a.42.42,0,0,1-.41-.41V49a.42.42,0,0,1,.41-.41H66.53a.41.41,0,0,1,.41.41V59.43A.41.41,0,0,1,66.53,59.84Z"/><g class="cls-5"><path class="cls-1" d="M66.53,49V59.43H56.06V49H66.53m0-.82H56.06a.82.82,0,0,0-.82.82V59.43a.83.83,0,0,0,.82.83H66.53a.83.83,0,0,0,.83-.83V49A.82.82,0,0,0,66.53,48.14Z"/></g><path class="cls-4" d="M81.43,59.84H71a.42.42,0,0,1-.42-.41V49a.42.42,0,0,1,.42-.41H81.43a.42.42,0,0,1,.41.41V59.43A.42.42,0,0,1,81.43,59.84Z"/><g class="cls-5"><path class="cls-1" d="M81.43,49V59.43H71V49H81.43m0-.82H71a.83.83,0,0,0-.84.82V59.43a.84.84,0,0,0,.84.83H81.43a.83.83,0,0,0,.82-.83V49A.82.82,0,0,0,81.43,48.14Z"/></g><path class="cls-4" d="M96.32,59.84H85.86a.41.41,0,0,1-.41-.41V49a.41.41,0,0,1,.41-.41H96.32a.42.42,0,0,1,.42.41V59.43A.42.42,0,0,1,96.32,59.84Z"/><g class="cls-5"><path class="cls-1" d="M96.32,49V59.43H85.86V49H96.32m0-.82H85.86A.82.82,0,0,0,85,49V59.43a.83.83,0,0,0,.83.83H96.32a.83.83,0,0,0,.83-.83V49A.82.82,0,0,0,96.32,48.14Z"/></g><path class="cls-4" d="M100.76,48.55h10.46a.41.41,0,0,1,.41.41V59.43a.41.41,0,0,1-.41.41H100.76a.41.41,0,0,1-.41-.41V49A.42.42,0,0,1,100.76,48.55Z"/><g class="cls-5"><path class="cls-1" d="M111.22,49V59.43H100.76V49h10.46m0-.82H100.76a.82.82,0,0,0-.83.82V59.43a.83.83,0,0,0,.83.83h10.46a.83.83,0,0,0,.83-.83V49A.82.82,0,0,0,111.22,48.14Z"/></g><path class="cls-4" d="M126.12,59.84H115.66a.42.42,0,0,1-.42-.41V49a.42.42,0,0,1,.42-.41h10.46a.41.41,0,0,1,.41.41V59.43A.41.41,0,0,1,126.12,59.84Z"/><g class="cls-5"><path class="cls-1" d="M126.12,49V59.43H115.66V49h10.46m0-.82H115.66a.82.82,0,0,0-.83.82V59.43a.83.83,0,0,0,.83.83h10.46a.83.83,0,0,0,.83-.83V49A.82.82,0,0,0,126.12,48.14Z"/></g><path class="cls-4" d="M130.55,48.55H141a.41.41,0,0,1,.41.41V59.43a.41.41,0,0,1-.41.41H130.55a.41.41,0,0,1-.41-.41V49A.42.42,0,0,1,130.55,48.55Z"/><g class="cls-5"><path class="cls-1" d="M141,49V59.43H130.55V49H141m0-.82H130.55a.82.82,0,0,0-.82.82V59.43a.83.83,0,0,0,.82.83H141a.84.84,0,0,0,.83-.83V49A.83.83,0,0,0,141,48.14Z"/></g><path class="cls-4" d="M145.45,48.55h10.46a.41.41,0,0,1,.41.41V59.43a.41.41,0,0,1-.41.41H145.45a.41.41,0,0,1-.41-.41V49A.42.42,0,0,1,145.45,48.55Z"/><g class="cls-5"><path class="cls-1" d="M155.92,49V59.43H145.45V49h10.47m0-.82H145.45a.82.82,0,0,0-.83.82V59.43a.83.83,0,0,0,.83.83h10.47a.83.83,0,0,0,.82-.83V49A.82.82,0,0,0,155.92,48.14Z"/></g><path class="cls-4" d="M160.35,48.55h10.46a.41.41,0,0,1,.41.41V59.43a.41.41,0,0,1-.41.41H160.35a.41.41,0,0,1-.41-.41V49A.42.42,0,0,1,160.35,48.55Z"/><g class="cls-5"><path class="cls-1" d="M170.81,49V59.43H160.35V49h10.46m0-.82H160.35a.82.82,0,0,0-.83.82V59.43a.83.83,0,0,0,.83.83h10.46a.83.83,0,0,0,.83-.83V49A.82.82,0,0,0,170.81,48.14Z"/></g><path class="cls-4" d="M185.71,59.84H175.24a.41.41,0,0,1-.41-.41V49a.41.41,0,0,1,.41-.41h10.47a.41.41,0,0,1,.41.41V59.43A.41.41,0,0,1,185.71,59.84Z"/><g class="cls-5"><path class="cls-1" d="M185.71,49V59.43H175.24V49h10.47m0-.82H175.24a.82.82,0,0,0-.82.82V59.43a.83.83,0,0,0,.82.83h10.47a.83.83,0,0,0,.82-.83V49A.81.81,0,0,0,185.71,48.14Z"/></g><path class="cls-4" d="M190.14,48.55h10.46A.41.41,0,0,1,201,49V59.43a.41.41,0,0,1-.41.41H190.14a.41.41,0,0,1-.41-.41V49A.42.42,0,0,1,190.14,48.55Z"/><g class="cls-5"><path class="cls-1" d="M200.61,49V59.43H190.14V49h10.47m0-.82H190.14a.81.81,0,0,0-.82.82V59.43a.83.83,0,0,0,.82.83h10.47a.83.83,0,0,0,.82-.83V49A.82.82,0,0,0,200.61,48.14Z"/></g><path class="cls-4" d="M66.53,75.26H56.06a.41.41,0,0,1-.41-.41V64.39a.42.42,0,0,1,.41-.42H66.53a.42.42,0,0,1,.42.42V74.85A.41.41,0,0,1,66.53,75.26Z"/><g class="cls-5"><path class="cls-1" d="M66.53,64.39V74.85H56.06V64.39H66.53m0-.83H56.06a.83.83,0,0,0-.82.83V74.85a.83.83,0,0,0,.82.83H66.53a.83.83,0,0,0,.83-.83V64.39A.83.83,0,0,0,66.53,63.56Z"/></g><path class="cls-4" d="M81.43,75.26H71a.41.41,0,0,1-.42-.41V64.39A.42.42,0,0,1,71,64H81.43a.41.41,0,0,1,.41.42V74.85A.41.41,0,0,1,81.43,75.26Z"/><g class="cls-5"><path class="cls-1" d="M81.43,64.39V74.85H71V64.39H81.43m0-.83H71a.84.84,0,0,0-.84.83V74.85a.84.84,0,0,0,.84.83H81.43a.83.83,0,0,0,.82-.83V64.39A.83.83,0,0,0,81.43,63.56Z"/></g><path class="cls-4" d="M85.86,64H96.32a.41.41,0,0,1,.41.41V74.85a.41.41,0,0,1-.41.41H85.86a.42.42,0,0,1-.42-.42V64.39A.41.41,0,0,1,85.86,64Z"/><g class="cls-5"><path class="cls-1" d="M96.32,64.39V74.85H85.86V64.39H96.32m0-.83H85.86a.83.83,0,0,0-.83.83V74.85a.83.83,0,0,0,.83.83H96.32a.83.83,0,0,0,.83-.83V64.39A.83.83,0,0,0,96.32,63.56Z"/></g><path class="cls-4" d="M111.22,75.26H100.76a.41.41,0,0,1-.41-.41V64.39a.41.41,0,0,1,.41-.42h10.46a.42.42,0,0,1,.42.42V74.85A.41.41,0,0,1,111.22,75.26Z"/><g class="cls-5"><path class="cls-1" d="M111.22,64.39V74.85H100.76V64.39h10.46m0-.83H100.76a.83.83,0,0,0-.83.83V74.85a.83.83,0,0,0,.83.83h10.46a.83.83,0,0,0,.83-.83V64.39A.83.83,0,0,0,111.22,63.56Z"/></g><path class="cls-4" d="M126.12,75.26H115.66a.41.41,0,0,1-.42-.41V64.39a.42.42,0,0,1,.42-.42h10.46a.41.41,0,0,1,.41.42V74.85A.41.41,0,0,1,126.12,75.26Z"/><g class="cls-5"><path class="cls-1" d="M126.12,64.39V74.85H115.66V64.39h10.46m0-.83H115.66a.83.83,0,0,0-.83.83V74.85a.83.83,0,0,0,.83.83h10.46a.83.83,0,0,0,.83-.83V64.39A.83.83,0,0,0,126.12,63.56Z"/></g><path class="cls-4" d="M141,75.26H130.55a.41.41,0,0,1-.41-.41V64.39a.41.41,0,0,1,.41-.42H141a.41.41,0,0,1,.41.42V74.85A.41.41,0,0,1,141,75.26Z"/><g class="cls-5"><path class="cls-1" d="M141,64.39V74.85H130.55V64.39H141m0-.83H130.55a.83.83,0,0,0-.82.83V74.85a.83.83,0,0,0,.82.83H141a.83.83,0,0,0,.83-.83V64.39A.83.83,0,0,0,141,63.56Z"/></g><path class="cls-4" d="M155.92,75.26H145.45a.41.41,0,0,1-.41-.41V64.39a.41.41,0,0,1,.41-.42h10.47a.42.42,0,0,1,.41.42V74.85A.41.41,0,0,1,155.92,75.26Z"/><g class="cls-5"><path class="cls-1" d="M155.92,64.39V74.85H145.45V64.39h10.47m0-.83H145.45a.83.83,0,0,0-.83.83V74.85a.83.83,0,0,0,.83.83h10.47a.83.83,0,0,0,.82-.83V64.39A.83.83,0,0,0,155.92,63.56Z"/></g><path class="cls-4" d="M170.81,75.26H160.35a.41.41,0,0,1-.42-.41V64.39a.42.42,0,0,1,.42-.42h10.46a.41.41,0,0,1,.41.42V74.85A.41.41,0,0,1,170.81,75.26Z"/><g class="cls-5"><path class="cls-1" d="M170.81,64.39V74.85H160.35V64.39h10.46m0-.83H160.35a.83.83,0,0,0-.83.83V74.85a.83.83,0,0,0,.83.83h10.46a.83.83,0,0,0,.83-.83V64.39A.83.83,0,0,0,170.81,63.56Z"/></g><path class="cls-4" d="M175.24,64h10.47a.41.41,0,0,1,.41.41V74.85a.42.42,0,0,1-.42.42H175.24a.41.41,0,0,1-.41-.41V64.38A.41.41,0,0,1,175.24,64Z"/><g class="cls-5"><path class="cls-1" d="M185.71,64.39V74.85H175.24V64.39h10.47m0-.83H175.24a.83.83,0,0,0-.82.83V74.85a.83.83,0,0,0,.82.83h10.47a.82.82,0,0,0,.82-.83V64.39A.82.82,0,0,0,185.71,63.56Z"/></g><path class="cls-4" d="M200.61,75.26H190.14a.41.41,0,0,1-.41-.41V64.39a.42.42,0,0,1,.41-.42h10.47a.42.42,0,0,1,.41.42V74.85A.41.41,0,0,1,200.61,75.26Z"/><g class="cls-5"><path class="cls-1" d="M200.61,64.39V74.85H190.14V64.39h10.47m0-.83H190.14a.82.82,0,0,0-.82.83V74.85a.82.82,0,0,0,.82.83h10.47a.83.83,0,0,0,.82-.83V64.39A.83.83,0,0,0,200.61,63.56Z"/></g><rect class="cls-4" x="55.66" y="78.57" width="11.29" height="11.29" rx="0.41"/><g class="cls-5"><path class="cls-1" d="M66.53,79V89.45H56.06V79H66.53m0-.82H56.06a.82.82,0,0,0-.82.82V89.45a.82.82,0,0,0,.82.82H66.53a.82.82,0,0,0,.83-.82V79A.83.83,0,0,0,66.53,78.16Z"/></g><path class="cls-4" d="M81.43,89.86H71a.41.41,0,0,1-.42-.41V79a.41.41,0,0,1,.42-.41H81.43a.41.41,0,0,1,.41.41V89.45A.41.41,0,0,1,81.43,89.86Z"/><g class="cls-5"><path class="cls-1" d="M81.43,79V89.45H71V79H81.43m0-.82H71a.83.83,0,0,0-.84.82V89.45a.83.83,0,0,0,.84.82H81.43a.82.82,0,0,0,.82-.82V79A.82.82,0,0,0,81.43,78.16Z"/></g><path class="cls-4" d="M85.86,78.57H96.32a.42.42,0,0,1,.42.42V89.45a.41.41,0,0,1-.41.41H85.86a.41.41,0,0,1-.41-.41V79A.41.41,0,0,1,85.86,78.57Z"/><g class="cls-5"><path class="cls-1" d="M96.32,79V89.45H85.86V79H96.32m0-.82H85.86A.83.83,0,0,0,85,79V89.45a.82.82,0,0,0,.83.82H96.32a.82.82,0,0,0,.83-.82V79A.83.83,0,0,0,96.32,78.16Z"/></g><rect class="cls-4" x="100.35" y="78.57" width="11.29" height="11.29" rx="0.41"/><g class="cls-5"><path class="cls-1" d="M111.22,79V89.45H100.76V79h10.46m0-.82H100.76a.83.83,0,0,0-.83.82V89.45a.82.82,0,0,0,.83.82h10.46a.82.82,0,0,0,.83-.82V79A.83.83,0,0,0,111.22,78.16Z"/></g><rect class="cls-4" x="115.24" y="78.57" width="11.29" height="11.29" rx="0.41"/><g class="cls-5"><path class="cls-1" d="M126.12,79V89.45H115.66V79h10.46m0-.82H115.66a.83.83,0,0,0-.83.82V89.45a.82.82,0,0,0,.83.82h10.46a.82.82,0,0,0,.83-.82V79A.83.83,0,0,0,126.12,78.16Z"/></g><rect class="cls-4" x="130.14" y="78.57" width="11.29" height="11.29" rx="0.41"/><g class="cls-5"><path class="cls-1" d="M141,79V89.45H130.55V79H141m0-.82H130.55a.82.82,0,0,0-.82.82V89.45a.82.82,0,0,0,.82.82H141a.83.83,0,0,0,.83-.82V79A.83.83,0,0,0,141,78.16Z"/></g><rect class="cls-4" x="145.04" y="78.57" width="11.29" height="11.29" rx="0.41"/><g class="cls-5"><path class="cls-1" d="M155.92,79V89.45H145.45V79h10.47m0-.82H145.45a.83.83,0,0,0-.83.82V89.45a.82.82,0,0,0,.83.82h10.47a.82.82,0,0,0,.82-.82V79A.82.82,0,0,0,155.92,78.16Z"/></g><rect class="cls-4" x="159.93" y="78.57" width="11.29" height="11.29" rx="0.41"/><g class="cls-5"><path class="cls-1" d="M170.81,79V89.45H160.35V79h10.46m0-.82H160.35a.83.83,0,0,0-.83.82V89.45a.82.82,0,0,0,.83.82h10.46a.82.82,0,0,0,.83-.82V79A.83.83,0,0,0,170.81,78.16Z"/></g><rect class="cls-4" x="174.83" y="78.57" width="11.29" height="11.29" rx="0.41"/><g class="cls-5"><path class="cls-1" d="M185.71,79V89.45H175.24V79h10.47m0-.82H175.24a.82.82,0,0,0-.82.82V89.45a.82.82,0,0,0,.82.82h10.47a.81.81,0,0,0,.82-.82V79A.82.82,0,0,0,185.71,78.16Z"/></g><rect class="cls-4" x="189.73" y="78.57" width="11.29" height="25.34" rx="0.41"/><g class="cls-5"><path class="cls-1" d="M200.61,79v24.51H190.14V79h10.47m0-.82H190.14a.82.82,0,0,0-.82.82v24.51a.82.82,0,0,0,.82.83h10.47a.83.83,0,0,0,.82-.83V79A.82.82,0,0,0,200.61,78.16Z"/></g><path class="cls-4" d="M141,104.46H130.55a.41.41,0,0,1-.41-.41V93.58a.41.41,0,0,1,.41-.41H141a.41.41,0,0,1,.41.41v10.47A.41.41,0,0,1,141,104.46Z"/><g class="cls-5"><path class="cls-1" d="M141,93.58V104H130.55V93.58H141m0-.82H130.55a.82.82,0,0,0-.82.82V104a.83.83,0,0,0,.82.83H141a.83.83,0,0,0,.83-.83V93.58A.83.83,0,0,0,141,92.76Z"/></g><path class="cls-4" d="M155.92,104.46H145.45a.41.41,0,0,1-.41-.41V93.58a.41.41,0,0,1,.41-.41h10.47a.41.41,0,0,1,.41.41v10.47A.42.42,0,0,1,155.92,104.46Z"/><g class="cls-5"><path class="cls-1" d="M155.92,93.58V104H145.45V93.58h10.47m0-.82H145.45a.82.82,0,0,0-.83.82V104a.83.83,0,0,0,.83.83h10.47a.83.83,0,0,0,.82-.83V93.58A.82.82,0,0,0,155.92,92.76Z"/></g><path class="cls-4" d="M170.81,104.46H160.35a.42.42,0,0,1-.42-.41V93.58a.41.41,0,0,1,.42-.41h10.46a.41.41,0,0,1,.41.41v10.47A.41.41,0,0,1,170.81,104.46Z"/><g class="cls-5"><path class="cls-1" d="M170.81,93.58V104H160.35V93.58h10.46m0-.82H160.35a.82.82,0,0,0-.83.82V104a.83.83,0,0,0,.83.83h10.46a.83.83,0,0,0,.83-.83V93.58A.82.82,0,0,0,170.81,92.76Z"/></g><rect class="cls-4" x="174.83" y="93.17" width="11.29" height="11.29" rx="0.41"/><g class="cls-5"><path class="cls-1" d="M185.71,93.58V104H175.24V93.58h10.47m0-.82H175.24a.82.82,0,0,0-.82.82V104a.83.83,0,0,0,.82.83h10.47a.82.82,0,0,0,.82-.83V93.58A.81.81,0,0,0,185.71,92.76Z"/></g><rect class="cls-4" x="25.86" y="63.42" width="11.3" height="11.29" rx="0.41"/><g class="cls-5"><path class="cls-1" d="M36.74,63.83V74.3H26.27V63.83H36.74m0-.82H26.27a.83.83,0,0,0-.83.82V74.3a.83.83,0,0,0,.83.83H36.74a.83.83,0,0,0,.82-.83V63.83A.82.82,0,0,0,36.74,63Z"/></g><rect class="cls-4" x="40.92" y="63.42" width="11.29" height="11.29" rx="0.41"/><g class="cls-5"><path class="cls-1" d="M51.8,63.83V74.3H41.34V63.83H51.8m0-.82H41.34a.83.83,0,0,0-.83.82V74.3a.83.83,0,0,0,.83.83H51.8a.83.83,0,0,0,.83-.83V63.83A.83.83,0,0,0,51.8,63Z"/></g><rect class="cls-4" x="25.86" y="78.29" width="11.29" height="11.29" rx="0.41"/><g class="cls-5"><path class="cls-1" d="M36.74,78.71V89.17H26.27V78.71H36.74m0-.83H26.27a.83.83,0,0,0-.83.83V89.17a.83.83,0,0,0,.83.83H36.74a.83.83,0,0,0,.82-.83V78.71A.83.83,0,0,0,36.74,77.88Z"/></g><rect class="cls-4" x="40.84" y="78.29" width="11.29" height="11.29" rx="0.41"/><g class="cls-5"><path class="cls-1" d="M51.72,78.71V89.17H41.25V78.71H51.72m0-.83H41.25a.83.83,0,0,0-.83.83V89.17a.83.83,0,0,0,.83.83H51.72a.83.83,0,0,0,.82-.83V78.71A.83.83,0,0,0,51.72,77.88Z"/></g><rect class="cls-4" x="25.86" y="93.17" width="11.3" height="11.29" rx="0.41"/><g class="cls-5"><path class="cls-1" d="M36.74,93.58V104H26.27V93.58H36.74m0-.83H26.27a.83.83,0,0,0-.83.83V104a.83.83,0,0,0,.83.83H36.74a.83.83,0,0,0,.82-.83V93.58A.83.83,0,0,0,36.74,92.75Z"/></g><path class="cls-4" d="M41.42,93.17H51.89a.41.41,0,0,1,.41.41V104a.41.41,0,0,1-.41.41H41.42A.42.42,0,0,1,41,104V93.58A.41.41,0,0,1,41.42,93.17Z"/><g class="cls-5"><path class="cls-1" d="M51.88,93.58V104H41.42V93.58H51.88m0-.83H41.42a.83.83,0,0,0-.83.83V104a.83.83,0,0,0,.83.83H51.88a.83.83,0,0,0,.83-.83V93.58A.83.83,0,0,0,51.88,92.75Z"/></g><rect class="cls-7" x="147.6" y="269.85" width="5.75" height="0.33"/><rect class="cls-7" x="147.6" y="233.04" width="5.75" height="9.2"/><rect class="cls-7" x="147.6" y="251.45" width="5.75" height="9.2"/><polygon class="cls-8" points="223.38 342.33 43.88 341.47 42.23 234.85 223.38 234.85 223.38 342.33"/><path class="cls-2" d="M220.77,234.85V339h-172V234.85h172m0-6.35h-172a6.42,6.42,0,0,0-6.5,6.35V339a6.42,6.42,0,0,0,6.5,6.34h172a6.42,6.42,0,0,0,6.5-6.34V234.85A6.42,6.42,0,0,0,220.77,228.5Z"/><rect class="cls-2" x="116.64" y="344.87" width="36.85" height="22.54"/><path class="cls-2" d="M169.54,363.55l-64.88-.05a8.64,8.64,0,0,1-3.06,5.78l67.49,0c3,0,3.09-1.44,3.09-1.44V365C172.18,363.42,169.54,363.55,169.54,363.55Z"/><path class="cls-2" d="M101.36,369.23l64.87,0a8.69,8.69,0,0,1,3.06-5.78l-67.49,0c-3,0-3.09,1.44-3.09,1.44v2.84C98.71,369.36,101.36,369.23,101.36,369.23Z"/><rect class="cls-3" x="140.55" y="263.87" width="66.38" height="21.78"/><rect class="cls-3" x="58.96" y="263.87" width="66.38" height="21.78"/><rect class="cls-3" x="58.96" y="293.21" width="138.57" height="6.83"/><rect class="cls-3" x="58.96" y="245.66" width="130.36" height="6.84"/><rect class="cls-3" x="58.96" y="309.54" width="149.06" height="6.84"/><rect class="cls-3" x="58.96" y="321.68" width="109.27" height="6.84"/><path class="cls-9" d="M179.33,289.37h67.39a6.24,6.24,0,0,1,6.24,6.24v97.33a6.24,6.24,0,0,1-6.24,6.24H179.33a6.23,6.23,0,0,1-6.23-6.24V295.61A6.23,6.23,0,0,1,179.33,289.37Z"/><path class="cls-10" d="M213,390.71a2.85,2.85,0,1,1-2.85,2.84A2.84,2.84,0,0,1,213,390.71Z"/><path class="cls-11" d="M177,300.6h72.11V388H177Z"/><rect class="cls-3" x="184.04" y="363.92" width="46.11" height="5.4"/><rect class="cls-3" x="184.04" y="371.83" width="56.83" height="3.15"/><rect class="cls-3" x="184.04" y="377.42" width="52.31" height="3.15"/><rect class="cls-3" x="184.04" y="314.71" width="52.31" height="5.4"/><rect class="cls-3" x="184.04" y="322.62" width="56.83" height="3.14"/><rect class="cls-3" x="184.04" y="328.21" width="46.11" height="3.15"/><rect class="cls-3" x="184.04" y="306.32" width="56.81" height="3.15"/><rect class="cls-3" x="183.56" y="337.1" width="25.04" height="22.72"/><rect class="cls-3" x="214.2" y="337.1" width="25.04" height="22.72"/><path class="cls-2" d="M249.19,60c-10.18.64-13.05,6.31-13.05,8.92,0,2.78-.22,30.3-.22,33.3S239.14,114,251.24,114c11.43,0,14.87-9.5,14.87-12v-33c0-2.53-2.61-8.36-13.26-8.94"/><path class="cls-3" d="M233.61,66.78c0-2.78,3.21-9,15-9,12.1,0,15,6.32,15,9v33c0,2.55-3.44,12.06-14.87,12.06-12.1,0-15.32-8.77-15.32-11.77S233.61,69.55,233.61,66.78Z"/><path class="cls-2" d="M250.17,69.5a2,2,0,0,0-1.55-.8,2,2,0,0,0-1.56.8,2.63,2.63,0,0,0-.55,1.66v4.17a2.62,2.62,0,0,0,.55,1.65,2,2,0,0,0,1.56.8,2,2,0,0,0,1.56-.8,2.75,2.75,0,0,0,.55-1.65V71.16A2.7,2.7,0,0,0,250.17,69.5Zm-1.35,6.42a.36.36,0,0,1-.2.14.34.34,0,0,1-.21-.14,1,1,0,0,1-.18-.59V71.16a1,1,0,0,1,.18-.6c.1-.12.17-.13.21-.13s.1,0,.2.13a1,1,0,0,1,.18.6v4.17A1,1,0,0,1,248.82,75.92Z"/><g class="cls-12"><path class="cls-13" d="M248,110.8c14.11,0,14.87-10.37,14.9-10.81l-.05-21.48c-2.06,8.69-7.58,23.08-21.6,23.08a25.27,25.27,0,0,1-7.14-1.11C234.59,103.12,237,110.8,248,110.8Z"/></g><rect class="cls-7" x="132.06" y="190.07" width="5" height="8"/><rect class="cls-7" x="132.12" y="206.92" width="5" height="8"/><rect class="cls-3" x="132.06" y="190.07" width="5" height="8"/><rect class="cls-3" x="132.12" y="206.92" width="5" height="8"/><rect class="cls-7" x="132.09" y="155.67" width="5" height="8"/><rect class="cls-7" x="132.15" y="172.52" width="5" height="8"/><rect class="cls-3" x="132.09" y="155.67" width="5" height="8"/><rect class="cls-3" x="132.15" y="172.52" width="5" height="8"/><rect class="cls-7" x="132.03" y="123.27" width="5" height="8"/><rect class="cls-7" x="132.09" y="140.12" width="5" height="8"/><rect class="cls-3" x="132.03" y="123.27" width="5" height="8"/><rect class="cls-3" x="132.09" y="140.12" width="5" height="8"/></g></svg>