<svg xmlns="http://www.w3.org/2000/svg" viewBox="0 0 303.53 194.95"><defs><style>.cls-1{fill:#79a287;}.cls-2{fill:#006964;}.cls-3{fill:#e73140;}.cls-4{fill:#a8272d;}.cls-5{fill:#282d46;}.cls-6{fill:#d8d9c5;}.cls-7{fill:#a1beb0;}.cls-8{fill:#758b81;}.cls-9{fill:#90aa9e;}.cls-10{fill:#4c4b60;}.cls-11{fill:#363544;}.cls-12{fill:#9d252a;}.cls-13{fill:#839b90;}.cls-14{fill:#e8404b;}.cls-15{fill:#b13339;}.cls-16{fill:#c83941;}.cls-17{fill:#edefdc;}.cls-18{fill:#aa272e;}.cls-19{fill:#33323f;}.cls-20{fill:#b6343b;}.cls-21{fill:#8ea89b;}</style></defs><g id="Layer_2" data-name="Layer 2"><g id="Capa_1" data-name="Capa 1"><rect class="cls-1" x="15.25" y="55.73" width="94.99" height="44.86"/><rect class="cls-2" x="58.14" y="55.73" width="9.2" height="44.86"/><polygon class="cls-3" points="65.05 54.24 96.87 66.72 89.27 83.19 61.03 54.89 65.05 54.24"/><polygon class="cls-3" points="60.13 54.11 27.7 64.9 34.42 81.74 64.1 54.97 60.13 54.11"/><path class="cls-3" d="M60.81,55.37s9.08-19.07,23.63-20.7c0,0,6.94,4.63,6.88,17.07,0,0-2.55-5.34-11.36-2.74-6,1.77-16,6.91-16,6.91Z"/><path class="cls-4" d="M63.92,55.91s27.3,2,27.42-4.19c.11-5.43-10.08-3.62-13.31-2.43S63.92,55.91,63.92,55.91Z"/><path class="cls-3" d="M64.3,55.47S56.23,35.94,41.8,33.54c0,0-7.18,4.27-7.78,16.7,0,0,2.83-5.2,11.5-2.14,5.87,2.07,15.65,7.74,15.65,7.74Z"/><path class="cls-4" d="M61.17,55.84S33.8,56.44,34,50.21c.18-5.43,10.26-3.08,13.42-1.73S61.17,55.84,61.17,55.84Z"/><path class="cls-5" d="M62.48,51.12Z"/><path class="cls-4" d="M63.48,51.16l-1.63,0c-1.14,0-2,2.19-1.55,3.58.22.63,1.2,2.62,1.2,2.62l1-.92.92.9s1.15-1.86,1.41-2.48C65.4,53.45,64.63,51.19,63.48,51.16Z"/><path class="cls-5" d="M62.85,51.13h0Z"/><rect class="cls-6" x="162.61" y="31.15" width="71.15" height="103.79"/><rect class="cls-7" x="190.55" y="31.15" width="15.29" height="103.79"/><path class="cls-7" d="M197.57,31.24S213.88,20.37,210,5.55c0,0,11.17,1.25,12.45,7.59,0,0-.67,14.52-19.73,19.11Z"/><path class="cls-8" d="M197.57,31.24a145.16,145.16,0,0,1,3.53-14.5c2.75-8.37,7.18-13,8.94-11.19C213.66,9.19,209.15,24.13,197.57,31.24Z"/><path class="cls-7" d="M197.54,31.22s-15.63-15.5-8.2-31c0,0-12.58-1-15.36,5.68,0,0-2.39,16.14,17.62,25.31Z"/><path class="cls-8" d="M197.54,31.22a125.19,125.19,0,0,0-.52-16.1C195.8,5.31,191.66-1.34,189.34.23,184.56,3.46,186.31,20.89,197.54,31.22Z"/><path class="cls-9" d="M197.64,31.19a25.82,25.82,0,0,0-9-2c-5.17,0-7.55,2-7.55,2s-4.67,8.07-.36,21.46c3.77,11.74-.42,19.19-2.75,20.45,0,0,6.83-.55,9-1.46a12.12,12.12,0,0,0,5.57-4.57s.88-13.81-1.36-20.71C189.47,41,192.19,32.15,197.64,31.19Z"/><path class="cls-9" d="M197.71,31.19a25.75,25.75,0,0,1,9-2c5.16,0,7.55,2,7.55,2s4.66,8.07.36,21.46c-3.78,11.74.41,19.19,2.75,20.45,0,0-6.84-.55-9-1.46a12.12,12.12,0,0,1-5.57-4.57s-.88-13.81,1.36-20.71C205.87,41,203.15,32.15,197.71,31.19Z"/><rect class="cls-10" x="79.87" y="97.92" width="79.07" height="60.76"/><rect class="cls-11" x="74.65" y="96.33" width="89.51" height="1.59"/><rect class="cls-10" x="74.65" y="82.36" width="89.51" height="13.97"/><rect class="cls-3" x="114.36" y="97.92" width="10.09" height="60.76"/><rect class="cls-3" x="79.84" y="121.6" width="79.14" height="10.08"/><path class="cls-12" d="M118.13,82.36h1.52c-2-6.55-9.46-22.62-7.68-24.53s4.34-.13,4.34-.13c-1.62-3.58-3.65-6-5.59-5.44-2.1.58-5.09,3.78-3.2,9.86C108.92,66.61,116.89,79.83,118.13,82.36Z"/><path class="cls-3" d="M116.64,58.09c1.94,2.57,4,14.57,3.11,24.27h2.86c1.53-7.68,4.14-20-1.12-27-2.22-2.93-5.59-5.83-11-3A21.57,21.57,0,0,1,116.64,58.09Z"/><path class="cls-12" d="M150.5,69.11c-1-1.8-3.81-2-7.13-1.14,0,0,2.83,1.11,2.83,3.41,0,3-16.53,9.92-19.08,11H131c3-.9,12-3.65,15.49-5.07C151.56,75.21,151.55,71.06,150.5,69.11Z"/><path class="cls-3" d="M141.35,62.64c-13,0-21.16,18-21.9,19.72h2.92C126.11,72.15,139.3,68,142.91,68a20.15,20.15,0,0,1,7.66,1.36C148.72,63.55,144.66,62.64,141.35,62.64Z"/><path class="cls-12" d="M111.69,82.36c-2.54-1.06-19.08-8-19.08-11,0-2.3,2.83-3.41,2.83-3.41-3.32-.83-6.16-.66-7.13,1.14-1,2-1.06,6.1,4,8.18,3.46,1.42,12.51,4.17,15.5,5.07Z"/><path class="cls-3" d="M116.44,82.36h2.92c-.74-1.71-8.86-19.72-21.9-19.72-3.31,0-7.37.91-9.23,6.67A20.23,20.23,0,0,1,95.9,68C99.51,68,112.7,72.15,116.44,82.36Z"/><path class="cls-3" d="M125.24,109.66c-.29-19.13-5.09-27.24-5.09-27.24h2.25s9.37,8.11,9.66,27.24l-3.65-4.34Z"/><path class="cls-3" d="M113.29,109.66c.3-19.13,5.09-27.24,5.09-27.24h-2.25s-9.36,8.11-9.65,27.24l3.64-4.34Z"/><rect class="cls-7" x="132.28" y="133.75" width="95" height="13.76"/><rect class="cls-13" x="132.28" y="146.26" width="95" height="1.25"/><rect class="cls-7" x="134.04" y="147.38" width="91.48" height="47.58"/><rect class="cls-14" x="172.53" y="147.36" width="14.5" height="47.57"/><rect class="cls-14" x="172.53" y="133.73" width="14.5" height="12.51"/><rect class="cls-15" x="172.53" y="146.26" width="14.5" height="1.08"/><path class="cls-15" d="M178.44,133.72H180c-2.13-6.92-10-23.9-8.12-25.93s4.59-.13,4.59-.13c-1.71-3.8-3.86-6.32-5.9-5.75-2.23.61-5.39,4-3.39,10.42C168.7,117.07,177.13,131.05,178.44,133.72Z"/><path class="cls-14" d="M176.86,108.07c2,2.71,4.28,15.39,3.3,25.65h3c1.61-8.12,4.37-21.16-1.19-28.53-2.35-3.1-5.91-6.16-11.59-3.19A22.68,22.68,0,0,1,176.86,108.07Z"/><path class="cls-15" d="M212.66,119.71c-1-1.9-4-2.08-7.53-1.2,0,0,3,1.18,3,3.61,0,3.15-17.49,10.49-20.18,11.6h4.13c3.15-.95,12.72-3.85,16.38-5.36C213.78,126.17,213.77,121.78,212.66,119.71Z"/><path class="cls-14" d="M203,112.88c-13.79,0-22.37,19-23.16,20.84h3.09c4-10.79,17.89-15.23,21.72-15.23a21.33,21.33,0,0,1,8.1,1.44C210.78,113.84,206.49,112.88,203,112.88Z"/><path class="cls-15" d="M171.63,133.72c-2.69-1.11-20.18-8.45-20.18-11.6,0-2.43,3-3.61,3-3.61-3.51-.88-6.51-.7-7.54,1.2-1.1,2.07-1.12,6.46,4.21,8.65,3.66,1.51,13.23,4.41,16.38,5.36Z"/><path class="cls-14" d="M176.65,133.72h3.09c-.78-1.8-9.37-20.84-23.16-20.84-3.5,0-7.79,1-9.75,7.05a21.33,21.33,0,0,1,8.1-1.44C158.76,118.49,172.7,122.93,176.65,133.72Z"/><path class="cls-16" d="M186.23,162.5c-.31-20.22-5.38-28.78-5.38-28.78h2.38s9.9,8.56,10.21,28.78l-3.86-4.58Z"/><path class="cls-16" d="M173.6,162.5c.31-20.22,5.38-28.78,5.38-28.78H176.6s-9.9,8.56-10.21,28.78l3.86-4.58Z"/><rect class="cls-10" y="100.48" width="67.39" height="94.45"/><rect class="cls-17" y="139.87" width="67.39" height="10.72"/><rect class="cls-17" x="28.53" y="100.54" width="10.33" height="94.41"/><polygon class="cls-3" points="35.56 145.64 59.98 155.58 54.54 169.82 32.53 146.28 35.56 145.64"/><polygon class="cls-3" points="31.82 145.64 7.4 155.58 12.85 169.82 34.86 146.28 31.82 145.64"/><path class="cls-3" d="M32.37,146.7s6.52-16.51,17.53-18.23c0,0,5.37,3.81,5.57,14.44,0,0-2-4.51-8.69-2.09-4.5,1.64-12,6.26-12,6.26Z"/><path class="cls-18" d="M34.74,147.08s20.78,1.14,20.75-4.19c0-4.65-7.73-2.87-10.16-1.78S34.74,147.08,34.74,147.08Z"/><path class="cls-3" d="M35,146.7s-6.52-16.51-17.53-18.23c0,0-5.37,3.81-5.58,14.44,0,0,2-4.51,8.69-2.09,4.51,1.64,12,6.26,12,6.26Z"/><path class="cls-18" d="M32.65,147.08s-20.78,1.14-20.75-4.19c0-4.65,7.73-2.87,10.16-1.78S32.65,147.08,32.65,147.08Z"/><path class="cls-5" d="M33.55,143h0Z"/><path class="cls-18" d="M34.31,143H33.08c-.88,0-1.51,1.91-1.12,3.09.18.54,1,2.21,1,2.21l.75-.81.72.75s.84-1.61,1-2.15C35.82,145,35.18,143,34.31,143Z"/><path class="cls-5" d="M33.84,143h0Z"/><path class="cls-19" d="M269.74,126.65s18.92-12.5,21.88-10.63c0,0-6.47,6.35-12.71,9.73C275.16,127.78,271,128.69,269.74,126.65Z"/><path class="cls-10" d="M269.74,126.65A46.84,46.84,0,0,0,291.62,116s2.46-.44,1.39,1.81-1.7,3.2-.84,3.92,1.11,2-2.52,4.74-15.24,7.81-17.72,3.84Z"/><path class="cls-19" d="M254.82,126.65S235.9,114.15,232.94,116c0,0,6.47,6.35,12.71,9.73C249.4,127.78,253.55,128.69,254.82,126.65Z"/><path class="cls-10" d="M254.82,126.65A46.84,46.84,0,0,1,232.94,116s-2.46-.44-1.39,1.81,1.7,3.2.84,3.92-1.11,2,2.52,4.74,15.24,7.81,17.72,3.84Z"/><path class="cls-19" d="M262,127.75s4.46-24.87,11-26.53c0,0,1.66,9.7-.94,17.47C270.5,123.36,266.73,127.75,262,127.75Z"/><path class="cls-10" d="M262,127.75s11.78-11.48,11-26.53c0,0,2.41-2.55,4.5-.25s2.79,3.44,5,3.06,4.42.12,4.11,5.1-7.05,18.72-16.2,18.72Z"/><path class="cls-19" d="M262,127.75s-4.46-24.87-11-26.53c0,0-1.65,9.7.95,17.47C253.52,123.36,257.29,127.75,262,127.75Z"/><path class="cls-10" d="M262,127.75s-11.78-11.48-11-26.53c0,0-2.4-2.55-4.49-.25s-2.79,3.44-5,3.06-4.42.12-4.11,5.1,7.05,18.72,16.2,18.72Z"/><rect class="cls-14" x="221.03" y="127.43" width="82.49" height="67.53"/><rect class="cls-10" x="221.17" y="157.55" width="82.22" height="7.27"/><rect class="cls-10" x="258.65" y="127.43" width="7.27" height="67.53"/><rect class="cls-14" x="52.3" y="168.91" width="97.62" height="26.04"/><rect class="cls-20" x="47.16" y="167.35" width="107.89" height="1.56"/><rect class="cls-14" x="47.16" y="158.86" width="107.89" height="8.49"/><rect class="cls-7" x="52.42" y="176.97" width="97.39" height="9.92"/><rect class="cls-7" x="96.15" y="168.91" width="9.92" height="26.04"/><rect class="cls-7" x="96.15" y="158.91" width="9.92" height="8.49"/><rect class="cls-8" x="96.15" y="167.37" width="9.92" height="1.54"/><path class="cls-8" d="M99.85,158.84h1.5c-2-6.43-9.31-22.23-7.56-24.12s4.28-.13,4.28-.13c-1.6-3.52-3.6-5.87-5.5-5.35-2.07.57-5,3.72-3.15,9.7C90.79,143.36,98.63,156.36,99.85,158.84Z"/><path class="cls-7" d="M98.39,135c1.9,2.52,4,14.32,3.06,23.86h2.81c1.51-7.55,4.07-19.68-1.1-26.54-2.19-2.88-5.5-5.73-10.79-3A21.19,21.19,0,0,1,98.39,135Z"/><path class="cls-8" d="M131.69,145.81c-.95-1.77-3.74-1.93-7-1.11,0,0,2.79,1.09,2.79,3.35,0,2.93-16.27,9.76-18.77,10.79h3.84c2.93-.88,11.83-3.58,15.24-5C132.74,151.82,132.72,147.73,131.69,145.81Z"/><path class="cls-7" d="M122.7,139.46c-12.83,0-20.82,17.71-21.55,19.38H104c3.67-10,16.64-14.17,20.2-14.17a19.86,19.86,0,0,1,7.54,1.34C129.94,140.35,126,139.46,122.7,139.46Z"/><path class="cls-8" d="M93.52,158.84c-2.5-1-18.77-7.86-18.77-10.79,0-2.26,2.78-3.35,2.78-3.35-3.26-.82-6.06-.66-7,1.11s-1,6,3.91,8.05c3.41,1.4,12.31,4.1,15.25,5Z"/><path class="cls-7" d="M98.19,158.84h2.87c-.72-1.67-8.71-19.38-21.54-19.38-3.25,0-7.25.89-9.07,6.55A19.77,19.77,0,0,1,78,144.67C81.54,144.67,94.52,148.81,98.19,158.84Z"/><path class="cls-21" d="M106.85,185.7c-.29-18.82-5-26.79-5-26.79h2.21s9.22,8,9.5,26.79L110,181.43Z"/><path class="cls-21" d="M95.1,185.7c.28-18.82,5-26.79,5-26.79H97.89s-9.21,8-9.5,26.79L92,181.43Z"/></g></g></svg>