<svg xmlns="http://www.w3.org/2000/svg" viewBox="0 0 1785.08 866.81"><defs><style>.cls-1{isolation:isolate;}.cls-2{fill:#008891;}.cls-3{fill:#00587a;}.cls-34,.cls-4{fill:none;}.cls-5{fill:#fff;}.cls-6{fill:#30043d;}.cls-7{fill:#fdb36a;}.cls-8{fill:#339cff;}.cls-9{fill:#fd9533;}.cls-10{fill:#e54059;}.cls-11{fill:#c2374b;}.cls-12{fill:#b33345;}.cls-13{fill:#fdc189;}.cls-14{fill:#fedab8;}.cls-15{fill:#8e1f51;}.cls-16{fill:#ad2663;}.cls-17{fill:#801c49;}.cls-18{fill:#751a43;}.cls-19{fill:#de4d45;}.cls-20{fill:#de837f;}.cls-21{fill:#e59c99;}.cls-22{fill:#f2cdcc;}.cls-23{fill:#58595b;}.cls-24{fill:#6d6e71;}.cls-25{fill:#525355;mix-blend-mode:screen;}.cls-26{fill:#de625b;}.cls-27{fill:#031c3d;}.cls-28{fill:#f7d5a0;}.cls-29{fill:#cc2424;}.cls-30,.cls-48,.cls-49{mix-blend-mode:multiply;}.cls-31{fill:#06397d;}.cls-32{fill:#e54040;}.cls-33{fill:#e52525;}.cls-34{stroke:#fff;stroke-miterlimit:10;}.cls-35{fill:#939598;}.cls-36{fill:#e6e7e8;}.cls-37{fill:#54066b;}.cls-38{fill:#640780;}.cls-39{fill:#400452;}.cls-40{fill:#a7a9ac;}.cls-41{fill:#f1f2f2;}.cls-42{fill:#ffcd89;}.cls-43{fill:#052959;}.cls-44{fill:#228df0;}.cls-45{fill:#1b72c2;}.cls-46{fill:#d1d3d4;}.cls-47{fill:#580770;}.cls-48{fill:#bc9cc6;}.cls-49{fill:#ea667a;}</style></defs><g class="cls-1"><g id="Layer_2" data-name="Layer 2"><g id="Layer_1-2" data-name="Layer 1"><path class="cls-2" d="M1687.4,507.62S1853.34,49,1612.26,5.81C1376-36.53,1322,166.64,1116.5,158.64c-148.61-5.79-142.12-31.75-244.22-42.73C721,99.64,608.84,175.3,608.84,175.3S569.87,57,458.59,43.06C338,28,314,160,198,193,49.83,235.1-51.85,320,28,468.24c63.54,118-31.91,211.39,30.13,314.29,61.5,102,283.49,105,408.47-28.45,0,0,159.05,144.14,368.5,106.44,150-27,272.66-78.81,272.66-78.81s132.66-7.72,225.66,33C1662.71,958.93,1910,745.12,1687.4,507.62Z"/><path class="cls-3" d="M1687.4,507.62s-35.43,112.86-400.08,135c-326.1,19.8-593.63-50.15-913.2-40.14-93,2.92-279,30-335.86,64.84-4.56,38.28-3.75,76.06,19.85,115.21,61.5,102,283.49,105,408.47-28.45,0,0,159.05,144.14,368.5,106.44,150-27,320.53-109.87,493.56-37.87C1660.56,960.76,1940,751.32,1687.4,507.62Z"/><path class="cls-2" d="M1164.57,114.31c-59.52,7.65-137,.75-126.39-51.24,11-53.77,201.69-91.56,209.34-14.08C1251.72,91.54,1189.61,111.1,1164.57,114.31Z"/><path class="cls-2" d="M177.47,34.81C221.84,27.67,264,58.27,243.12,105c-24.85,55.76-116,76.08-134.11,10.31C97.29,72.66,129.78,42.49,177.47,34.81Z"/><path class="cls-4" d="M1687.4,507.62S1853.34,49,1612.26,5.81C1376-36.53,1294.64,173.14,1107.74,163.14c-148.52-7.94-126.65-32.61-235.46-47.23C748.61,99.29,608.84,175.3,608.84,175.3S569.87,57,458.59,43.06C338,28,314,160,198,193,49.83,235.1-51.85,320,28,468.24,67.34,541.31,45.69,605,38.26,667.32h0q-.42,3.55-.78,7.1a.88.88,0,0,1,0,.17q-.35,3.48-.61,6.94a2.64,2.64,0,0,0,0,.29c-.18,2.27-.32,4.54-.44,6.81,0,.13,0,.26,0,.39q-.16,3.36-.24,6.72c0,.15,0,.31,0,.46,0,2.22-.06,4.43,0,6.65,0,.17,0,.34,0,.52q0,3.3.2,6.59l0,.57c.06,1.1.12,2.2.2,3.3v.09c.07,1.05.16,2.11.25,3.17,0,.2,0,.4.05.59.1,1.09.21,2.18.34,3.27l0,.26c.11,1,.24,2,.37,3,0,.21.05.41.08.61.15,1.07.31,2.15.48,3.23l.06.4c.16,1,.32,1.95.5,2.93,0,.2.07.4.11.6.19,1.07.4,2.14.62,3.21,0,.17.08.34.11.5.2,1,.41,1.91.63,2.87,0,.19.09.39.14.58.25,1.07.51,2.13.78,3.2.06.2.11.4.16.6.25.94.51,1.89.78,2.83l.15.55c.31,1.06.63,2.13,1,3.19.06.22.14.44.21.66.3.95.61,1.89.93,2.84.06.17.12.34.17.51.37,1.06.76,2.12,1.15,3.19l.27.71c.36,1,.73,1.91,1.12,2.87l.17.44c.44,1.07.89,2.13,1.35,3.2l.32.74c.44,1,.88,2,1.34,3l.15.33c.51,1.07,1,2.15,1.56,3.22l.39.77c.51,1,1,2,1.59,3.08l.1.19c.58,1.08,1.18,2.16,1.79,3.24.14.26.29.52.44.78.62,1.09,1.26,2.18,1.91,3.27,8.65,14.34,20.47,26.73,34.75,37.05q2.39,1.73,4.85,3.36,3.71,2.47,7.61,4.76c.86.51,1.74,1,2.62,1.51a188.16,188.16,0,0,0,28.32,12.94q9,3.29,18.67,5.85c2.13.57,4.29,1.11,6.46,1.63,1.09.26,2.18.51,3.28.75q6.57,1.47,13.35,2.61c1.13.19,2.27.37,3.41.54a293.51,293.51,0,0,0,49.71,3.28h.12q3.57-.06,7.15-.2l4-.19q9-.46,18.1-1.46c1.36-.14,2.73-.3,4.1-.46q9.12-1.11,18.3-2.73c1.44-.25,2.89-.51,4.34-.79q11.34-2.15,22.71-5.11,3.78-1,7.55-2.07l3.78-1.1q14.34-4.28,28.49-9.87c1.73-.69,3.46-1.38,5.18-2.1q4.71-2,9.39-4.07c1.77-.8,3.55-1.61,5.31-2.45,1.22-.57,2.43-1.15,3.64-1.74,2.43-1.18,4.84-2.4,7.24-3.64q1.8-.93,3.6-1.89,5.38-2.86,10.68-5.95,8.83-5.13,17.41-10.86,3.42-2.29,6.8-4.69,5.07-3.58,10-7.39,6.6-5.07,13-10.53l3.17-2.75q6.31-5.57,12.39-11.52c2-2,4-4,6-6.06,1-1,2-2.06,2.94-3.1,0,0,38.53,34.92,102.64,65.89q3,1.47,6.18,2.93c2.08,1,4.2,2,6.33,2.91s4.3,1.92,6.49,2.87q6.56,2.84,13.4,5.58c2.29.91,4.59,1.82,6.92,2.71q8.73,3.33,17.9,6.44c2.45.83,4.91,1.64,7.4,2.43q5.6,1.8,11.34,3.47,9.57,2.79,19.53,5.24c2.65.65,5.33,1.28,8,1.88,10.79,2.43,21.88,4.5,33.27,6.14,2.85.41,5.71.8,8.59,1.15s5.79.68,8.7,1c1.46.15,2.93.29,4.39.42q11,1,22.33,1.43,4.53.16,9.1.22a396.38,396.38,0,0,0,76-6.25,1395.9,1395.9,0,0,0,152.34-36.84c108.91-27.69,224.5-49.6,341.22-1C1660.56,960.76,1940,751.32,1687.4,507.62Z"/><path class="cls-5" d="M614.5,148.71C613,148,611.28,147,611.27,147l.12-.21s1.74,1.05,3.21,1.71Z"/><path class="cls-5" d="M622.36,143.53l-.21-.1a32.42,32.42,0,0,0,1.42-3.29l.24.07A29.59,29.59,0,0,1,622.36,143.53Z"/><path class="cls-4" d="M1687.4,507.62h0S1853.34,49,1612.26,5.81C1376-36.53,1322,166.64,1116.5,158.64c-148.61-5.79-142.12-31.75-244.22-42.73C721,99.64,608.84,175.3,608.84,175.3S569.87,57,458.59,43.06C338,28,314,160,198,193,49.83,235.1-51.85,320,28,468.24c40.86,75.85,16,141.57,9.5,206.19v.15c-.24,2.32-.44,4.63-.62,6.95a2.64,2.64,0,0,0,0,.29q-.27,3.4-.44,6.81c0,.13,0,.26,0,.39q-.16,3.36-.24,6.72c0,.15,0,.31,0,.46,0,2.22-.06,4.43,0,6.65,0,.17,0,.34,0,.51,0,2.2.1,4.41.2,6.61l0,.55c.06,1.11.12,2.21.2,3.32v.06c.07,1.07.16,2.13.25,3.2,0,.19,0,.38.05.58.1,1.09.21,2.18.34,3.27l0,.26c.11,1,.24,2,.37,3,0,.2.05.4.08.59q.23,1.62.48,3.24l.06.4c.16,1,.32,1.95.5,2.93,0,.2.07.4.11.59.19,1.07.4,2.15.62,3.22,0,.17.08.33.11.5.2,1,.41,1.91.63,2.87,0,.19.09.39.14.58.25,1.07.51,2.13.79,3.2l.15.59c.25.95.51,1.89.78,2.84l.15.55c.31,1.07.63,2.13,1,3.2.06.21.14.43.21.65.3.94.61,1.89.93,2.84l.18.51c.36,1.06.75,2.12,1.14,3.19l.27.71c.36,1,.73,1.91,1.12,2.87l.17.44c.44,1.06.89,2.13,1.35,3.2l.32.74c.44,1,.88,2,1.34,3l.15.33c.51,1.07,1,2.14,1.56,3.22l.39.77c.51,1,1,2,1.59,3.07l.1.2c.58,1.08,1.18,2.16,1.79,3.24.14.26.29.52.44.78.62,1.09,1.26,2.18,1.91,3.27A116.7,116.7,0,0,0,66,794c.58.74,1.16,1.47,1.75,2.19,14.84,18.1,35.34,32.35,59.59,42.47,1,.41,1.94.8,2.93,1.2,3.92,1.56,7.94,3,12.05,4.38,2,.68,4.13,1.33,6.22,2s4.21,1.22,6.35,1.79q4.8,1.29,9.74,2.38t10,2q3.36.6,6.78,1.13a292.06,292.06,0,0,0,46.08,3.32q9.15-.06,18.44-.64c2.48-.16,5-.34,7.45-.56a341.46,341.46,0,0,0,60.37-10.8l3.77-1.06c10.07-2.87,20.1-6.23,30-10.08l3.72-1.47c2.47-1,4.94-2,7.4-3.08s4.91-2.14,7.35-3.26a330.25,330.25,0,0,0,35.84-19.12l3.49-2.17c2.31-1.47,4.61-3,6.9-4.49s4.55-3.09,6.8-4.69,4.49-3.22,6.71-4.87c1.11-.83,2.22-1.67,3.32-2.52q6.6-5.07,13-10.53l3.17-2.75q6.31-5.57,12.39-11.52,4.55-4.47,8.94-9.16s14.77,13.38,41.23,30.92q2,1.35,4.16,2.73c7.09,4.61,14.93,9.45,23.49,14.38q2.56,1.49,5.22,3,6.62,3.72,13.76,7.46T569.22,820q3,1.47,6.18,2.93c2.08,1,4.2,2,6.33,2.91a490.15,490.15,0,0,0,52.11,20q7.45,2.38,15.18,4.58,11.58,3.27,23.71,6a425.17,425.17,0,0,0,59.37,9.07q4.42.36,8.9.62,11.21.66,22.69.69c1.54,0,3.07,0,4.61,0q6.93-.06,14-.37l4.7-.23a398,398,0,0,0,48.12-5.67,1395.9,1395.9,0,0,0,152.34-36.84c108.91-27.69,224.5-49.6,341.22-1C1660.56,960.76,1940,751.32,1687.4,507.62Z"/><path class="cls-6" d="M1620.46,61.6c15.29-20.16,31.8-47.34,57.56-55,4.62-1.38,9.67-1.89,14.29-.22,2.89,1,8.44,4.43,9.7,7.48,2.9,7-3.83,16.9-7.22,23-7.11,12.74-16,24.43-24.56,36.19-8.82,12.07-17.47,24.29-26.76,36-4.4,5.55-9,11-13.85,16.13-4.11,4.32-7.33,6.34-13.44,4.44-3.57-1.12-7.33-2.42-10.28-4.78-9.28-7.44-2.88-14.85,2.27-22q6.81-9.39,13.62-18.78c8.68-11.93,17.5-23.78,27.1-35,5.29-6.19,10.73-13,17.32-17.88,2-1.49,13.76-8.92,14.37-.82.24,3.15-3.85,8.58-5.28,11.15a326.59,326.59,0,0,1-28.56,42.68c-1.78,2.27,1.76,5,3.54,2.73a333.42,333.42,0,0,0,31.26-47.54c2.38-4.41,6.4-12.22.78-16-5-3.43-12.89.22-17.23,3.14-7.34,4.94-13.3,12.37-19,19-6.26,7.27-12.19,14.81-18,22.47-6.06,8.06-11.95,16.24-17.87,24.41-4.35,6-11.56,12.92-13.44,20.25-1.73,6.71,2.41,13.2,7.86,16.78,4.77,3.13,13.24,7,19.07,5.65,7-1.59,13.32-11.27,17.61-16.37,6.27-7.42,12.1-15.19,17.85-23,11.71-15.93,24-31.65,34.55-48.4a142,142,0,0,0,12.46-24c2.54-6.57,1.54-10.43-3.66-15.41-14.32-13.7-34.17-4.07-47.27,6.46-15.3,12.32-26.59,29.05-38.35,44.56-1.74,2.3,1.8,5,3.54,2.73Z"/><path class="cls-2" d="M1643.54,14.53A126.65,126.65,0,0,1,1662,23.36L1634.23,51.3s-17.43,24.59-20,21.59S1599.82,62,1602.09,57.38,1629,18.58,1629,18.58Z"/><path class="cls-7" d="M591.83,315.9s-72.93,15.06-86,61.85l-95.84,7s-1.39-14,.45-20.55c0,0,19.56-11.56,57.48-29.74l83.58-22.28Z"/><path class="cls-4" d="M1687.4,507.62h0S1853.34,49,1612.26,5.81C1376-36.53,1322,166.64,1116.5,158.64c-148.61-5.79-142.12-31.75-244.22-42.73C721,99.64,608.84,175.3,608.84,175.3S569.87,57,458.59,43.06C338,28,314,160,198,193,49.83,235.1-51.85,320,28,468.24c40.86,75.85,16,141.57,9.5,206.19v.15c-.24,2.32-.44,4.63-.62,6.95a2.64,2.64,0,0,0,0,.29c-.18,2.27-.32,4.54-.44,6.81,0,.13,0,.26,0,.39q-.16,3.36-.24,6.72c0,.15,0,.31,0,.46,0,2.22-.06,4.43,0,6.65,0,.17,0,.34,0,.51,0,2.2.1,4.41.2,6.61l0,.55c.06,1.11.12,2.21.2,3.32v.06c.07,1.07.16,2.13.25,3.2,0,.19,0,.38.05.58.1,1.09.21,2.18.34,3.27l0,.26c.11,1,.24,2,.37,3,0,.2.05.4.08.59q.23,1.62.48,3.24l.06.4c.16,1,.32,1.95.5,2.93,0,.2.07.4.11.59.19,1.07.4,2.15.62,3.22,0,.17.08.33.11.5.2,1,.41,1.91.63,2.87,0,.2.09.39.14.58.25,1.07.51,2.13.79,3.2l.15.59c.25.95.51,1.9.78,2.84l.15.55c.31,1.07.63,2.13,1,3.2.07.21.14.43.2.65.31.94.62,1.89.94,2.84.06.17.12.34.17.51.37,1.06.76,2.12,1.15,3.19l.27.71c.36,1,.73,1.92,1.12,2.88.06.14.11.28.17.43.44,1.06.89,2.13,1.35,3.2l.32.74c.44,1,.88,2,1.34,3l.15.33c.51,1.07,1,2.15,1.56,3.22l.39.77c.51,1,1,2,1.59,3.08l.1.19c.58,1.08,1.18,2.16,1.79,3.24.14.26.29.52.44.78.62,1.09,1.26,2.18,1.91,3.27,17.3,28.68,47.29,49.54,84.25,61.73,2,.68,4.13,1.33,6.22,2,4.19,1.25,8.47,2.39,12.81,3.42,1.09.26,2.18.51,3.28.75q6.57,1.47,13.35,2.61c1.13.19,2.27.37,3.41.54a296.75,296.75,0,0,0,57,3.07l4-.19q9.17-.48,18.45-1.49c1.39-.15,2.78-.32,4.17-.49q8.87-1.08,17.78-2.65,14-2.46,27.94-6.14,3.39-.89,6.76-1.85,2.34-.66,4.66-1.37c1.91-.57,3.83-1.17,5.74-1.78l1.84-.59q2.82-.93,5.62-1.89l2.29-.8q2.38-.84,4.77-1.73c.8-.29,1.61-.59,2.41-.9q3.21-1.22,6.41-2.49l4.8-2q5-2.1,9.95-4.36,4.58-2.08,9.1-4.33l3.6-1.81c1.82-.93,3.63-1.86,5.44-2.83q4.72-2.52,9.39-5.21,4.19-2.4,8.31-4.94l3.49-2.17c2.31-1.47,4.61-3,6.9-4.49s4.55-3.09,6.8-4.69,4.49-3.22,6.71-4.87c1.11-.83,2.22-1.67,3.32-2.52q6.6-5.07,13-10.53l3.17-2.75q6.31-5.57,12.39-11.52,4.55-4.47,8.94-9.16s14.77,13.38,41.23,30.92q2,1.35,4.16,2.73c7.09,4.61,14.93,9.45,23.49,14.38q2.56,1.49,5.22,3,6.62,3.72,13.76,7.46T569.22,820q3,1.47,6.18,2.93c2.08,1,4.2,2,6.33,2.91s4.3,1.92,6.49,2.87q6.56,2.84,13.4,5.58c2.29.91,4.59,1.82,6.92,2.71q8.73,3.33,17.9,6.44c2.45.83,4.91,1.64,7.4,2.43,4,1.29,8.07,2.52,12.19,3.72q9.16,2.66,18.68,5c2.65.65,5.33,1.28,8,1.88q3.63.83,7.29,1.57l1.55.32q11.67,2.38,23.79,4.16c3.06.44,6.14.86,9.23,1.24,2.89.36,5.79.68,8.7,1l4.74.45q10.76,1,21.79,1.39,4.63.16,9.32.23a397.56,397.56,0,0,0,75.94-6.25,1395.9,1395.9,0,0,0,152.34-36.84c108.91-27.69,224.5-49.6,341.22-1C1660.56,960.76,1940,751.32,1687.4,507.62Z"/><path class="cls-2" d="M274.31,753.51c-18,2.75-91.79,17.13-14.45,29.41,70.8,11.25,184.86-4.89,165.23-16.34S326.31,745.58,274.31,753.51Z"/><path class="cls-2" d="M483,710.79c-18,2.74-91.7,12-14.37,24.23,70.81,11.25,184.87-4.89,165.24-16.34S535,702.86,483,710.79Z"/><path class="cls-8" d="M1222.72,726.28c-36.22,4.62-46.88,26.2,3.78,28.74s95-6.12,56.49-18.79S1222.72,726.28,1222.72,726.28Z"/><path class="cls-2" d="M1480.72,732.51c-84.32,4.62-109.15,26.2,8.82,28.74s221.14-6.12,131.53-18.79S1480.72,732.51,1480.72,732.51Z"/><path class="cls-2" d="M833.86,701.62c-46.71-1.32-211.1,41.16,97.31,48.16s279.62-52.07,177.29-52.57S833.86,701.62,833.86,701.62Z"/><path class="cls-9" d="M1433.63,745.86S1473,705.79,1450.17,632s-168.85-144.79-192.78,50.84l13.71,36.23-63.32,23.5s-69-144.17,95.63-212c218-89.74,321.48,219.14,321.48,219.14s-55-8.75-109-66.82C1515.87,683,1482.59,732.81,1433.63,745.86Z"/><path class="cls-7" d="M993,397.94s134.47-45.69,240.87-26.76,172.33,113.58,165.8,211.49-118.37,163.19-118.37,163.19-37-6.53-73.54-3.26c0,0,86.82-83.56,90.73-193.87s-50.91-188.65-297-146.22Z"/><path class="cls-9" d="M1168.05,393.58q6.51.82,12.64,1.91h0s2.49-18.86.47-28.88q-7.77-.08-15.51.15l-.31.37s5.09,19.25,2.71,26.44Z"/><path class="cls-9" d="M664,654.47s-5.87,109.67-213.45,64.63l11.1-11.1S607.24,715.18,604,594.42l30.68,5.88c15.06,20.5,28,42.8,29.37,54.17Z"/><path class="cls-7" d="M966.26,399.9S777.56,211.22,597.61,222.48C356.12,237.58,380.12,430,485.83,537c74.42,75.29,160.58,52.87,178.2,117.49,0,0,0-101.39-133.92-207.88-86.34-68.66,30-241.42,419.18-43.43Z"/><path class="cls-9" d="M442.75,715.83s-182.12-46.34-96-191.25l90.08,15.66s-24.15,11.1-31.33,31.33S390.53,659,461.68,708Z"/><path class="cls-9" d="M764.78,377.06c8.28,0,16.82.24,25.69.69l8.42-36.56q-10.82-2-22.2-3.71Z"/><path class="cls-9" d="M774.35,229.31c0-4.35,8.48-40.9,8.48-40.9S939.5,238.67,979.31,392.72l-4,7.52s-88-95-172.25-120.12Z"/><path class="cls-9" d="M993,389.46s108.36-66.59,25.46-265l-79,27.41s79.63,133.82,49,237.61Z"/><path class="cls-7" d="M984.86,403.82s-29.7-184.08,33.62-279.38a764.36,764.36,0,0,0-96.61,7.18s-76.37,111,53.53,272.2Z"/><path class="cls-9" d="M1154.25,203.42l34.6.65s16.22,194.52-194.25,199.75L993,397.94s91.39-8.48,139.69-182.12Z"/><path class="cls-7" d="M976.05,396S795.89,283.71,782.83,188.41c0,0-42.42,45-45,97.91,0,0,71.8,102,241.52,114.23Z"/><path class="cls-7" d="M969.52,403.82S889,330.33,788.25,334.11c0,0-13.25,30.54-10,58.61C778.27,392.72,855.84,420.9,969.52,403.82Z"/><path class="cls-7" d="M979.31,403.82s80.56-73.49,181.28-69.71c0,0,13.25,30.54,10,58.61C1170.57,392.72,1093,420.9,979.31,403.82Z"/><path class="cls-7" d="M988.45,396s-6.52-155.35,120.11-231.73c0,0,48.3-1.3,80.29,39.82C1188.85,204.07,1021.74,261.51,988.45,396Z"/><path class="cls-9" d="M959,419.05c-11-10-9.6-40,22.53-42s34.32,33.73,17.35,42S959,419.05,959,419.05Z"/><polygon class="cls-10" points="793.28 492.59 815.47 726.28 1145.77 726.28 1176.45 443.63 1060.26 443.63 854.64 461.26 793.28 492.59"/><polygon class="cls-11" points="918.28 500.3 912.41 726.28 815.47 726.28 793.28 492.59 918.28 500.3"/><path class="cls-12" d="M796,521.24l374.34-21.3,3.8-35.09L959,482.58s-71.72.87-71.68,1.1-41.62,6.77-44.67,9.36-33.94,12.61-33.94,12.61L794.93,510Z"/><polygon class="cls-10" points="769.13 416.22 783.49 517.4 1192.11 489.33 1207.78 412.3 769.13 416.22"/><polygon class="cls-11" points="909.14 414.97 909.14 508.76 783.49 517.4 769.13 416.22 909.14 414.97"/><polygon class="cls-12" points="988.45 414.26 962.67 726.28 966.26 726.28 1001.18 414.15 988.45 414.26"/><polygon class="cls-7" points="1001.18 414.15 966.26 726.28 1039.69 726.28 1125.86 413.03 1001.18 414.15"/><path class="cls-13" d="M1075.2,350.79s48.3-14.12,79.3-13.31c0,0,11.7,43.19,10.85,55.75,0,0-59.85,11.61-82.35,10.59Z"/><path class="cls-13" d="M1107.5,166.7s48.5,2.6,77.5,36.72c0,0-38.54,12-55,25.05l-58-34.25S1093,174.59,1107.5,166.7Z"/><path class="cls-13" d="M922.88,134.29s75.37-8.73,91.12-7c0,0-19.25,25.87-26.75,56.8l-83.07,2.69S910.52,147.79,922.88,134.29Z"/><path class="cls-13" d="M781.84,192.74S785,225.47,802,243.56l-37.22,69.18s-18.28-15.15-25-33.68C739.75,279.06,756.67,209.69,781.84,192.74Z"/><path class="cls-13" d="M779.17,391.62s24.17,7.12,34.33,8.23c0,0,9.17-47.56,14.17-57.73l-38.17-8.83S775.5,369.62,779.17,391.62Z"/><path class="cls-14" d="M1083.75,185.21l60,32.2s19.93-9.56,27.34-11.22c0,0-53.84-26.9-73.84-30.9Z"/><path class="cls-14" d="M1107.5,345.29l12.8,53s15.37-1.11,20.54-2.31L1130,340.46S1114,343,1107.5,345.29Z"/><path class="cls-14" d="M785.75,391.91s9.38,3.75,16.25,3.88l11.5-56.25-16-3.13S784.5,370.79,785.75,391.91Z"/><path class="cls-14" d="M744.63,286.4a25.69,25.69,0,0,0,8.75,11.68l38.12-67.92s-8.16-15.19-8.75-25C782.75,205.17,748.75,256.64,744.63,286.4Z"/><path class="cls-14" d="M911.67,162.54s63.12-6,81.35-3c0,0,5.73-11.3,11-19.9,0,0-63.5,2-88,5.69Z"/><path class="cls-13" d="M566.59,582.46s77.91,20.83,89.91,46.83c0,0-17-61.13-52-99.57s-53.06-56.93-53.06-56.93Z"/><path class="cls-13" d="M1267.26,672.22l86.24,9.57s45.25-58.75,45.25-114h-99S1289,643.9,1267.26,672.22Z"/><path class="cls-14" d="M1297.25,600l92.25,6.72s-16.75,44.28-28.25,56.78L1283,648.91S1294.75,622.29,1297.25,600Z"/><polygon class="cls-13" points="994.61 487.97 991.5 517.4 1095.75 514.73 1103.5 485.29 994.61 487.97"/><polygon class="cls-14" points="995.75 496.54 1098.5 493.97 1095.25 505.54 994.88 509.04 995.75 496.54"/><path class="cls-14" d="M606.51,592.41s19.22,4.69,31,13.21c0,0-5.26-37.35-16.27-50.52s-23.39-29-23.39-29Z"/><path class="cls-2" d="M883.1,761.84c25.34-1.32,65.8,48.52-101.47,55.52S612.44,752,667.94,751.52,883.1,761.84,883.1,761.84Z"/><polygon class="cls-15" points="649.97 766.13 724.16 805.79 832.49 804.34 887.29 777.11 909.94 549.62 774.54 524.21 680.74 545.18 657.82 572.59 637.86 600.38 649.97 766.13"/><polygon class="cls-16" points="704.75 596.19 724.16 805.79 649.97 766.13 637.86 600.38 671.01 589.47 704.75 596.19"/><polygon class="cls-17" points="903.46 614.73 840.61 599.51 832.49 804.34 887.29 777.11 903.46 614.73"/><polygon class="cls-18" points="645.09 621.41 639.95 628.98 641.4 648.79 705.87 608.25 840.02 614.33 900.79 641.52 905.46 594.61 786.42 569.34 724.64 578.83 673.76 593.77 645.09 621.41"/><path class="cls-19" d="M626.27,365.12c-.12-3.07,4.81-29.07,4.81-29.07S742.91,367,775.36,474.4l-2.6,5.41S708,415.39,648,400.09Z"/><path class="cls-19" d="M784.93,471.71s74.45-50,10.36-187.47l-54.87,21.58s59.94,92,41.29,166Z"/><path class="cls-20" d="M779.59,482.06s-26.19-128.85,15.7-197.82a540.46,540.46,0,0,0-67.86,7.82s-50.65,80.38,45.49,190.27Z"/><path class="cls-19" d="M893.22,336l24.4-.53s17,136.6-131.17,146.29l-1.28-4.09s64.15-8.59,93.23-132.32Z"/><path class="cls-20" d="M773.16,476.79S643,402.83,631.08,336.05c0,0-28.61,32.95-28.94,70.28,0,0,53.5,69.79,173.45,73.59Z"/><path class="cls-20" d="M768.78,482.5S709.92,433,639.06,438.56c0,0-8.46,21.9-5.36,41.59C633.7,480.15,689.16,497.79,768.78,482.5Z"/><path class="cls-20" d="M775.68,482.22s54.66-54.08,125.74-54.3c0,0,10.21,21.14,8.71,41C910.13,468.94,856.28,491,775.68,482.22Z"/><path class="cls-20" d="M781.9,476.44s-9-109.28,78-166.71c0,0,34-2.3,57.72,25.76C917.62,335.49,801.51,380.74,781.9,476.44Z"/><path class="cls-19" d="M761.82,493.53c-8.07-6.74-7.91-27.93,14.67-30.23s25.15,22.78,13.42,29.09S761.82,493.53,761.82,493.53Z"/><polygon class="cls-15" points="633.61 640.76 709.38 598.46 837.05 602.6 908.99 634.99 923.29 528.23 849.74 479.97 696.13 477.37 624.54 538.14 633.61 640.76"/><polygon class="cls-17" points="849.74 479.97 837.05 602.6 908.99 634.99 923.29 528.23 849.74 479.97"/><polygon class="cls-16" points="633.61 640.76 709.38 598.46 696.13 477.37 624.54 538.14 633.61 640.76"/><path class="cls-20" d="M746.16,478.22l16.72,327,33.82-.45,22.61-325.37A267,267,0,0,0,746.16,478.22Z"/><polygon class="cls-18" points="746.16 478.22 740.44 478.12 759.43 805.32 762.88 805.27 746.16 478.22"/><path class="cls-21" d="M785.17,298.78s-10,24.19-11.25,45.49h-58s1-23.22,7.75-41.73Z"/><path class="cls-21" d="M893.69,344.27s-33.88,16-44.07,29.25l-30.31-24s20-22.2,30.31-31C849.62,318.52,881.94,333.52,893.69,344.27Z"/><path class="cls-21" d="M899.94,470.64s-18.67,6.08-32.17,7.48l-7.67-42.93A132.31,132.31,0,0,1,887.61,430Z"/><path class="cls-21" d="M635.44,355.36s-22.5,35.83-27.17,56.16c0,0,13,11.8,19.83,16.4L656.44,386S640.77,371,635.44,355.36Z"/><path class="cls-21" d="M692.44,448.1s-20.84-5.74-40.67-5.41c0,0-4.83,29.95-3.08,39.64,0,0,24.75,3.19,34.75,3.69Z"/><path class="cls-22" d="M893.69,470.64s-12.57,2.86-18.22,5.05l-8.62-42.33,15.59-2Z"/><path class="cls-22" d="M680.55,446.36s-12.61-2-18.28-1.84l-4,37.81,14.33,2Z"/><path class="cls-22" d="M648.31,378.9s-6.5-6.63-9.12-12.88c0,0-23.75,42.13-25.13,49.25l5.88,4.88Z"/><path class="cls-22" d="M778.56,312.9s-3.79,12.55-3.75,17.62H718.06a88.62,88.62,0,0,1,2.63-14.12Z"/><path class="cls-22" d="M876.55,352.91s-8.2,2.86-13.86,7.7l-31.17-23.25,6.25-6.34Z"/><polygon class="cls-21" points="753.8 627.56 813.78 559.07 807.53 649.03 755.95 669.7 753.8 627.56"/><polygon class="cls-21" points="756.71 684.58 806.52 663.54 804.88 687.21 758.43 718.14 756.71 684.58"/><polygon class="cls-23" points="1350.06 370.04 1333.8 349.25 1301.39 299.15 1298.92 279.75 1463.72 269.58 1463.72 292.68 1436.06 349.25 1387.33 377.23 1350.06 370.04"/><polygon class="cls-23" points="1333.8 549.34 1286.29 580.09 1287.83 595.8 1474.51 595.8 1477.59 585.02 1436.06 549.34 1374.09 518.03 1354.68 531.42 1333.8 549.34"/><path class="cls-7" d="M1436.06,549.34a544.06,544.06,0,0,1-102.26,0V349.25c36.22,3.59,70.62,4.11,102.26,0Z"/><polygon class="cls-24" points="1301.39 299.15 1463.72 292.68 1463.72 269.58 1298.92 279.75 1301.39 299.15"/><polygon class="cls-24" points="1474.51 595.8 1477.59 585.02 1286.29 580.09 1287.83 595.8 1474.51 595.8"/><polygon class="cls-25" points="1384.93 352.13 1356.2 296.97 1355.91 276.23 1325.31 278.12 1328.18 298.08 1380.25 352.13 1384.93 352.13"/><polygon class="cls-25" points="1364.22 551.31 1325.31 581.09 1327.26 595.8 1367.46 595.8 1368.83 582.21 1372.31 551.57 1364.22 551.31"/><path class="cls-20" d="M1333.8,549.34s-5.17-12.84-.43-20.23l102.69-5.78s6.92,16.9,0,26C1436.06,549.34,1392.09,557.09,1333.8,549.34Z"/><path class="cls-26" d="M1332.74,530.26c20.51,5,66.6,10,104.77-2.54a44.47,44.47,0,0,0-1.45-4.39l-102.69,5.78A11.59,11.59,0,0,0,1332.74,530.26Z"/><path class="cls-26" d="M1438.08,545.51c-.08,0-27.39,8.83-68.21,6.27-22.1-1.39-32.09-2.88-36.6-3.94.31.94.53,1.5.53,1.5,58.29,7.75,102.26,0,102.26,0A13.79,13.79,0,0,0,1438.08,545.51Z"/><path class="cls-20" d="M1333.8,465s-9.29,43.15-.43,64.08c39.68,1.27,76,.54,102.69-5.78,0,0,5.07-47.82,0-69.08l-68.83-3Z"/><path class="cls-26" d="M1333.8,465s-.25,1.19-.64,3.25c20.56,5.84,71.5,7.92,103.24-12.51-.11-.52-.22-1-.34-1.52l-68.83-3Z"/><path class="cls-20" d="M1338.2,417.93l-4.4,3.31s-5.78,26.24,0,43.79c36.77.47,71.17-2.67,102.26-10.78a31.73,31.73,0,0,0,0-17.32l-78.15-23.79Z"/><path class="cls-26" d="M1436.06,436.93l-61-18.58-25.62-3.15-11.22,2.73-4.4,3.31s-.17.78-.43,2.17c17.34,11.2,76.71,18.95,103.22,15.67C1436.44,438.38,1436.27,437.66,1436.06,436.93Z"/><path class="cls-20" d="M1333.8,349.25s-9.63,22.34,0,72c33.83,10.61,67.87,16.75,102.26,15.69,0,0,6.92-64.69,0-87.68C1408.35,351.33,1365.5,352.6,1333.8,349.25Z"/><path class="cls-26" d="M1333.8,349.25a27,27,0,0,0-1,2.89c13.26,7,55.48,16.32,104.16.81-.28-1.33-.59-2.57-.93-3.7C1408.35,351.33,1365.5,352.6,1333.8,349.25Z"/><path class="cls-21" d="M1347.23,362.14s14.84,3.86,36.7,1.55c1.36,24.54,1.69,47.22-1.37,63.83,0,0-21.12,1.89-33.58-6.28C1347.84,420.49,1345.61,390.67,1347.23,362.14Z"/><path class="cls-21" d="M1349.33,431.84s12.13,6.36,34.07,6.36c1.35,7.18,1.12,14.88,0,22.87a268,268,0,0,1-32.69,1.85S1348,441.42,1349.33,431.84Z"/><path class="cls-21" d="M1348.81,473.2s21.08,2.77,35.52,0c.94,19.84,1.17,38.47,0,54.75,0,0-25.75,1.27-35.52,0C1348.81,528,1345.87,486.6,1348.81,473.2Z"/><path class="cls-21" d="M1348.81,534.25s22.37,3.7,35.12,2.31c0,0,2.25,9.82-.3,14.44,0,0-20,0-34.36-2.26A31.61,31.61,0,0,1,1348.81,534.25Z"/><path class="cls-22" d="M1355.12,364.92s-1.06,44.67,2.79,58.84c0,0,8,2.77,14.48,2l-1.54-60.84A71.4,71.4,0,0,1,1355.12,364.92Z"/><path class="cls-22" d="M1358.53,436.23c.06-.32,4.7,2.31,13.86,2.31,0,0,1.08,19.72,0,22.41,0,0-7.78.57-11.94.83C1360.45,461.78,1357.06,444,1358.53,436.23Z"/><path class="cls-22" d="M1359.68,475.35a53,53,0,0,0,14.41,0s3.85,39.51-.54,51.91c0,0-8,.43-13.87.37C1359.68,527.63,1357.68,486.6,1359.68,475.35Z"/><path class="cls-22" d="M1359.68,536.34s8.79,1.95,13.87,1.24c0,0,.46,7.47-1.24,12.24a67.29,67.29,0,0,1-12.63-.67S1358.76,544.51,1359.68,536.34Z"/><path class="cls-2" d="M995.08,749.78c-19.25,2.12-57.62,15.12-15.77,19.12s417.86,7.33,481.19,4,81.34-31.34,4.67-31.34S1059.65,742.66,995.08,749.78Z"/><path class="cls-27" d="M1276.66,355.76c25.1,19,15.16,43,14.28,46l-14.43-11.24-3.16-11.37-3.41-14.95Z"/><path class="cls-28" d="M1234,462.56s3.28,6.27-.54,10.23-5.9,6-6.27,4.15,2.72-6.45,2.72-6.45a28.38,28.38,0,0,0-5,4.61c-1.6,2.15-2.51,7.59-4.1,7.34s.84-8.41.84-8.41-1.82,9.32-3,8.17-.4-8.5-.4-8.5-.79,8.33-2.14,7.41.78-9.38.78-9.38-2.38,5.56-3.7,4.89,3.23-9,5.19-9.89,12.64-5.48,12.64-5.48Z"/><path class="cls-28" d="M1315.35,323.81s6.61,2.46,10.07-1.83c3.18-3.93,5.62-6.5,3.76-6.64s-6.49,3.42-6.49,3.42a16.35,16.35,0,0,1,4.14-4.54c3.16-2,7.29-.48,6.85-2s-8.85-1.34-8.85-1.34,9,.48,8.35-1-8.91-1.5-8.91-1.5,8.17,1.8,7.22.46c-1.56-2.21-9-1.77-9-1.77s5-4.34,4.22-5.57-8.51,4.34-9.16,6.4-4.65,14.95-4.65,14.95Z"/><path class="cls-29" d="M1271.71,379.91s34.45-40.53,40.73-58.56a12.05,12.05,0,0,1,7.65,3.95s-9.74,32.31-15.37,40c-6.83,9.32-19.32,27.65-19.32,27.65Z"/><path class="cls-28" d="M1269.17,500.51c-.05.51,1.81,8.83,1.18,10.88s-6.24,10.66-5.42,26.09,6.3,37,6.3,37h0l10.92,20.07,4.27-2a125.19,125.19,0,0,0-8.09-19.48s-1.68-21.64,5.8-60.63l1.83-15.38Z"/><path class="cls-6" d="M1271.36,598.66a3.09,3.09,0,0,0,1.88,0s-1.46-10.25.21-14.09c0,0,4,10.79,3.72,14.24,0,0,9,2.69,16.23-.36,0,0,1.3-2.55-.58-4.22s-6.4-1.63-6.4-1.63l-4.27,2s-10.5-19.07-10.92-20.07c0,0-3.59.08-4.81,6.15S1269.48,588.33,1271.36,598.66Z"/><g class="cls-30"><path class="cls-28" d="M1284.4,510.23l1.3-10.9c-.89-1.06-1.54-1.75-1.54-1.75l-1.09.12-13.9,2.81c-.05.51,1.81,8.83,1.18,10.88-.3,1-1.76,3.5-3.1,7.57h0A22.06,22.06,0,0,1,1284.4,510.23Z"/></g><path class="cls-28" d="M1249.94,500.51c-.06.51,1.8,8.83,1.18,10.88s-6.24,10.66-5.42,26.09,6.3,37,6.3,37h0l10.92,20.07,4.26-2a124.09,124.09,0,0,0-8.09-19.48s-1.67-21.64,5.8-60.63l1.84-15.38Z"/><path class="cls-6" d="M1252.13,598.66a3.08,3.08,0,0,0,1.88,0s-1.47-10.25.21-14.09c0,0,4,10.79,3.72,14.24,0,0,9,2.69,16.23-.36,0,0,1.29-2.55-.59-4.22s-6.4-1.63-6.4-1.63l-4.26,2s-10.5-19.07-10.92-20.07c0,0-3.6.08-4.81,6.15S1250.24,588.33,1252.13,598.66Z"/><g class="cls-30"><path class="cls-28" d="M1265.16,510.23l1.3-10.9c-.88-1.06-1.53-1.75-1.53-1.75l-1.1.12-13.89,2.81c-.06.51,1.8,8.83,1.18,10.88-.31,1-1.77,3.5-3.11,7.57h0A22.08,22.08,0,0,1,1265.16,510.23Z"/></g><path class="cls-31" d="M1284.64,434.38s15.81,30.95,17.65,64.07c0,0-25.26,17.07-62.4,1.51,0,0-7.86-49.19,17.65-68.09l10.79-3,11.79,3.34Z"/><path class="cls-5" d="M1244.57,501.7c.36-41.29,15.58-68.07,15.73-68.34l-.38-.22c-.16.27-15.42,27.14-15.79,68.55Z"/><path class="cls-28" d="M1272.34,365.79c-.33.67.84,11.37,5.36,15.72l5.27,5.6-15.81,4.11-12.88-8.53,2.84-8,2.34-10.2Z"/><g class="cls-30"><path class="cls-28" d="M1272.23,365.29l-8.75.39-2.52,4.19c3,3,8.85,3.85,12.68,4A49,49,0,0,1,1272.23,365.29Z"/></g><path class="cls-32" d="M1280.12,384.36s14,11.74,16.85,15.92c0,0-2.22,10.26-8.9,11.68,0,0-5.1,16.23-3.43,22.42,0,0-11.38,6.69-27.1-2.51,0,0,1.17-10.54-10-24.17l3.35-23.34,3.43-1.67,20.12,6.61Z"/><path class="cls-28" d="M1268.43,323.66c11.87,6.78,14.41,21.13,14.41,21.13l-3.11,2.08s6.75,19.23-16.18,21.44-23.1-18.61-23.1-18.61L1253,331.6Z"/><path class="cls-6" d="M1279.48,335.55c.73-.17,5.06-2.39,1.63-11.64s-8.84-12.76-12.83-12.18-6.36,7.65-24.94,13.68c-14.17,4.59-26,20.43,1.3,45.6,8.47,7.81-4.19,19.55-4.19,19.55l17-10.08s17.09-2.65,1.86-24.25l-2.22-5.91,1.9-1.81s13.73-10.77,13.45-22A30.68,30.68,0,0,1,1279.48,335.55Z"/><path class="cls-28" d="M1259,348.51s-2.84-3.34-6-2.55-1.62,10.81,5.8,10.32S1259,348.51,1259,348.51Z"/><path class="cls-32" d="M1260.11,382.18s19.86,9,17.59-.67c7.94,4.29,13.65,11.47,19.27,18.77l-20.17-7.74-16.69-3-6.35-4.87-2.91-.31S1257.88,382.55,1260.11,382.18Z"/><path class="cls-5" d="M1285,396.77l.4-.17c-1.9-4.44-8.78-10.91-9.07-11.19l-.3.32C1276.14,385.8,1283.18,392.42,1285,396.77Z"/><path class="cls-5" d="M1275.25,389.42a.69.69,0,0,1,.43-.83c.81-.24,1.43.12,1.5.82a1,1,0,0,1-.67,1.13.55.55,0,0,1-.18,0A1.29,1.29,0,0,1,1275.25,389.42Zm.54-.45c-.18,0-.17.27-.15.39.06.42.43.89.79.81a.66.66,0,0,0,.37-.72.59.59,0,0,0-.62-.55A1.15,1.15,0,0,0,1275.79,389Z"/><path class="cls-5" d="M1279.36,393.84a.67.67,0,0,1,.42-.82c.81-.25,1.43.12,1.51.81a1,1,0,0,1-.67,1.14l-.18,0C1279.89,395,1279.44,394.39,1279.36,393.84Zm.54-.45c-.18.05-.18.27-.16.4.06.41.43.88.79.8s.41-.42.37-.71a.57.57,0,0,0-.62-.55A1.31,1.31,0,0,0,1279.9,393.39Z"/><path class="cls-32" d="M1257.44,380.48c-1.64.15-10.51.07-19.14,9s-9.13,72.72-9.13,72.72,2.9,2.24,5.18.71c.9-.6,15-39.31,19.93-55.43s5.83-25.29,5.83-25.29Z"/><path class="cls-5" d="M1285,504.92h.44c-.14-50.92-7.93-68.12-8-68.28l-.4.18C1277.07,437,1284.82,454.12,1285,504.92Z"/><path class="cls-33" d="M1252.13,414.21s2.7-8.3,3.8-12.43c.44,4.49-.35,10.51-1.44,16.89Z"/><path class="cls-34" d="M1268.62,411s8.9,4.17,16.07,0"/><path class="cls-35" d="M1013.82,518.42c0-2.06,3.86-19.37,3.86-19.37s74.26,23.18,93.65,95.87l-1.86,3.57s-42-44.59-81.88-56.16Z"/><path class="cls-35" d="M1117.8,593.32s51-31.88,11-125.4l-37.24,13.26s38.15,63,24,112.16Z"/><path class="cls-36" d="M1114,600.14s-14.73-86.92,14.85-132.22a361.92,361.92,0,0,0-45.65,3.76s-35.69,52.75,26.32,128.5Z"/><path class="cls-35" d="M1193.34,504.76l16.36.18s8.4,91.92-91.09,95.17l-.77-2.77s43.17-4.36,65.37-86.63Z"/><path class="cls-36" d="M1109.8,596.47s-85.6-52.41-92.12-97.42c0,0-19.9,21.45-20.93,46.46,0,0,34.32,47.94,114.61,53.11Z"/><path class="cls-36" d="M1115.67,596.43s-3.67-73.43,55.92-110c0,0,22.84-.8,38.11,18.52C1209.7,504.94,1130.91,532.73,1115.67,596.43Z"/><path class="cls-36" d="M1101.82,605.61c-5.25-4.69-4.69-18.89,10.5-19.94s16.35,15.82,8.36,19.8S1101.82,605.61,1101.82,605.61Z"/><polygon class="cls-37" points="971.04 638.74 980.62 757.78 1477.78 757.78 1491 611.37 1266.6 626.42 1096.93 625.97 1004.79 622.32 971.04 638.74"/><polygon class="cls-38" points="1103.31 650.14 1103.31 757.78 980.62 757.78 971.04 638.74 1041.28 633.26 1077.77 639.65 1103.31 650.14"/><path class="cls-39" d="M977.88,644.21l-6.07,4.12,1.72,21.37h512.2l1.61-17.74L1158.5,633.27s-55.19-2.29-63.85,0S977.88,644.21,977.88,644.21Z"/><polygon class="cls-37" points="956.45 656.53 1497.39 662 1505.14 593.13 952.8 602.71 956.45 656.53"/><polygon class="cls-38" points="1111.08 599.96 1108.34 658.06 956.45 656.53 952.8 602.71 1111.08 599.96"/><path class="cls-36" d="M995.08,602l27.35,155.81h33.45V600.92C1037.55,599.18,1017,599.87,995.08,602Z"/><path class="cls-40" d="M1269.94,597.21l-17.63,160.57h58.38l45-162.06C1329.51,591.81,1300.57,592.94,1269.94,597.21Z"/><polygon class="cls-39" points="1055.88 757.78 1060.04 757.78 1065.52 600.92 1055.88 600.92 1055.88 757.78"/><polygon class="cls-39" points="1269.94 597.21 1262.4 597.21 1249.18 757.78 1252.31 757.78 1269.94 597.21"/><path class="cls-41" d="M1173.82,518.1s13.87-10.86,25.25-13c0,0-25.25-12.31-31.75-13.64,0,0-9.16,5.28-13.5,12.22Z"/><path class="cls-41" d="M1075,497.15h39.5s1.91-12.75,7.83-21l-43.08,5.71S1076.59,487,1075,497.15Z"/><path class="cls-41" d="M1001.18,548.83s12,12.48,17.55,16l13.21-30.76s-7.76-7.45-12.1-21.34C1019.84,512.71,1005.36,530.11,1001.18,548.83Z"/><path class="cls-5" d="M1158,499.94l21.88,12.77s6.37-4.52,9.37-5.52l-26.59-11.5A19.94,19.94,0,0,0,1158,499.94Z"/><path class="cls-5" d="M1078.09,487.06l39.75-3.66a77.35,77.35,0,0,0-2.92,8H1076.5A30,30,0,0,1,1078.09,487.06Z"/><path class="cls-5" d="M1004.69,551.31s5.56,6.19,8.13,7.57c0,0,10.93-24.32,14.18-29.63a42.93,42.93,0,0,1-4.68-8S1009.25,538.88,1004.69,551.31Z"/><polygon class="cls-5" points="1009.58 684.58 1055.88 624.79 1055.88 684.58 1016.9 726.28 1009.58 684.58"/><polygon class="cls-5" points="1017.78 731.31 1055.88 695.52 1055.88 718.06 1019.44 740.75 1017.78 731.31"/><polygon class="cls-42" points="307.64 759.96 308.33 768.77 302.76 770.3 302.81 760.01 307.64 759.96"/><path class="cls-6" d="M302.82,766.72a6.76,6.76,0,0,0-1.27,7.32,16.64,16.64,0,0,0,6,2.5l.42-1.06a22.1,22.1,0,0,1,2.84,1.82c1.24,1,16.19,3.88,18.93-1.57,0,0,.25-1.9-2.73-2.92s-13.73-2.85-18.64-5.75C308.38,767.06,305.15,768,302.82,766.72Z"/><polygon class="cls-42" points="280.64 759.96 281.33 768.77 275.76 770.3 275.81 760.01 280.64 759.96"/><path class="cls-6" d="M275.82,766.72a6.76,6.76,0,0,0-1.27,7.32,16.64,16.64,0,0,0,6,2.5l.42-1.06a22.1,22.1,0,0,1,2.84,1.82c1.24,1,16.19,3.88,18.93-1.57,0,0,.25-1.9-2.73-2.92s-13.73-2.85-18.64-5.75C281.38,767.06,278.15,768,275.82,766.72Z"/><path class="cls-31" d="M272.87,595.5s6.61,67.69,6.61,97.31-6.61,68.64-6.61,68.64c4.15,1.32,8.87,1.08,13.91,0a452.83,452.83,0,0,0,11-78.28c.06-1.32.11-2.64.16-4,.63-17.19.4-32.8-2.55-49.49l10.81-1.47s8.28,79.84-8.52,133.21a15.82,15.82,0,0,0,13.27,0s28.15-86.56,6.62-166Z"/><path class="cls-43" d="M274.75,616s29.78,5.94,46.73-3.47l-.64-3.09-46.5,1.92s.39,4.5.44,5"/><path class="cls-42" d="M342.91,539.54s-2.89-4.74.6-7.66,5.25-6.68,3.47-7.17-4.22,3.46-5.34,3.92c0,0-5.58-6.8,3.47-4.55,2.76.68,4.59-2.19-4.06-4-3.25-.68-5.55,4.21-5.72,4.09s5.15-2.57,8.18-3.72,1.44-4.22-3.65-1.9a12.37,12.37,0,0,0-6,6s5-4.76,6.72-6.17c2.86-2.38.47-3-2.93-1.27-3.65,1.87-5.49,5.39-5.17,6.25,0,0,.79-3.21,1.1-4.26.76-2.56-2-1.8-3,.31-2.42,5.31-.23,12.9,3.46,14.28l4.11,8.33Z"/><path class="cls-42" d="M294.78,528.51S293.46,537,300,543l-5.37,5.26-14-5.83s3.38-12-1.51-22S294.78,528.51,294.78,528.51Z"/><g class="cls-30"><path class="cls-42" d="M281.8,533.71A30.53,30.53,0,0,0,280,522.26l9.05,1.43c3.14,2.51,5.77,4.82,5.77,4.82a17.71,17.71,0,0,0,.49,6.51C293.12,535.94,288.94,536.58,281.8,533.71Z"/></g><path class="cls-6" d="M301.52,498.27s11.5-13.46-2.8-20.33-20,8.09-25.48,12-13.14,5.27-14,14.48,17.4,22.25,19.34,25.19c0,0-4.35-9.07-4.41-13.65,0-1.36,1.76-4.2,5.51-5.39C281,510.17,298.47,503.34,301.52,498.27Z"/><path class="cls-42" d="M295.34,491.27s11.1,10.35,10.53,23.14c0,0-2.34,1.41-3.66.85,0,0,1.78,15.89-10.07,17.39s-24.07-13.16-25.77-22.57,12.79-16.17,12.79-16.17l15.24-9Z"/><path class="cls-6" d="M297.16,488.33a32.47,32.47,0,0,1-23.83,26.27s6.84,7.18,5.23,15l-6.37-7.38-5.9-7.52-1.7-13.37s9.18-7.44,10.16-7.89,10.95-4.87,11.24-5.09,6.57-4.35,6.57-4.35l5-.44Z"/><path class="cls-42" d="M279,513.2a5.34,5.34,0,0,0-5.53-1.4c-4.23,1.58-.37,10.55,5.53,10.11S279,513.2,279,513.2Z"/><path class="cls-44" d="M269.32,562.69c-1.78,8.78,1.13,42,5.09,47.41,0,0,15.62,12.35,46.85,1.25,2.42-8,2.54-17.8.22-29.6,0,0,11.28,18.25,23.13,15.06s4-52.87.39-58.51c0,0-4.89-3.39-10.54,1.12,0,0,7.9,37.43,1.7,37.43s-11.88-23.11-22-29.59C305,541.44,299,541.94,299,541.94l6.9,22.69L301,585.88,287.44,555.6l-6.62-13.76Z"/><path class="cls-42" d="M270.62,602.35s2.24,4.25,4.94.58,6.34-5.65,6.94-3.91-4,5.56-4.39,6.7c0,0,9.56,1.17,15,2s2.49,3.87-3.34,2.71c-4.19-.83-5.42-.33-5.29-.16s8.06,2,11.24,2.6,2.12,3.92-3.28,2.47c-4.65-1.25-9.09-2.31-8.2-1.61s6.52,2.65,8.56,3.54.7,3.29-2.32,2.46-7.76-3.18-8.64-3.46a47.47,47.47,0,0,0,4.46,2.88c2,1.1.87,3.23-1.32,2.47s-9-5.61-10.58-9.21l-6.85-8.08Z"/><path class="cls-44" d="M280.82,541.84s-17.7,4.07-26.27,7.7-26.16,15.65-19.9,35.3c7.3,22.93,39.79,27.67,39.79,27.67l-.11-8.89s-25.57-8.85-22.91-27.65c1.75-12.36,24.89-12.46,24.89-12.46L280,545.73Z"/><path class="cls-45" d="M269.09,564.16s5.86-.74,7.22-.65l-7.51,8.83A62.94,62.94,0,0,1,269.09,564.16Z"/><path class="cls-45" d="M321.5,581.84s-3.66-15.42-6.16-21.75c.73-.33,12.69,28.49,15.38,32.29A45.44,45.44,0,0,1,321.5,581.84Z"/><path class="cls-44" d="M299,541.94s-9.58,3-18.17-.1l-.86,3.89,11,27.43,12.51,19.66,6.33-15.64-1.43-21.3-6-11.47Z"/><path class="cls-7" d="M257.37,632.28s88.77,143.61,182.11,76.37-92.69-184.07-92.69-184.07,62-22.2,135.12-11.1c0,0,103.14,105.09-31.33,205.62s-315.28,11.75-342-111c0,0,92.69,65.93,132.51,72.46Z"/><path class="cls-13" d="M357.5,528.45s47.37,29.42,65.67,54l87.33-14.67S496.84,530,480.84,517.4C480.84,517.4,423.5,505.77,357.5,528.45Z"/><path class="cls-13" d="M194.5,718.29s55.11,45,148.31,39.49l17.94-31.5s-40-13-66.61-43Z"/><path class="cls-14" d="M404.25,560l98-7.69s-6.25-13-10.5-19.25l-109.9,10.25A181.42,181.42,0,0,1,404.25,560Z"/><path class="cls-14" d="M247.17,742.46s24.17,9.33,48,11.33l38-38.67s-17.09-8.17-21.33-13.5Z"/><path class="cls-13" d="M510.5,360.61s5-16.09,25-27.32l-25-90.23S458,258.11,432,301.83Z"/><path class="cls-14" d="M447.5,285.31s23-21.5,42.5-31l33.75,84.5-5,5.46Z"/><path class="cls-2" d="M1655,747.74s-26.94,1-20,7.72,60.88,4.57,71.21,0-7.75-8.2-19.21-7.72S1655,747.74,1655,747.74Z"/><polygon class="cls-42" points="1662.84 735.38 1662.19 743.84 1667.54 745.31 1667.49 735.43 1662.84 735.38"/><path class="cls-6" d="M1667.48,741.87a6.49,6.49,0,0,1,1.22,7,15.82,15.82,0,0,1-5.77,2.4l-.41-1a20.82,20.82,0,0,0-2.73,1.76c-1.19.94-15.55,3.72-18.19-1.51,0,0-.23-1.82,2.62-2.81s13.2-2.74,17.92-5.53C1662.14,742.19,1665.24,743.06,1667.48,741.87Z"/><polygon class="cls-42" points="1688.79 735.38 1688.13 743.84 1693.48 745.31 1693.43 735.43 1688.79 735.38"/><path class="cls-6" d="M1693.42,741.87a6.47,6.47,0,0,1,1.22,7,15.82,15.82,0,0,1-5.77,2.4l-.4-1a20.12,20.12,0,0,0-2.73,1.76c-1.2.94-15.56,3.72-18.2-1.51,0,0-.23-1.82,2.63-2.81s13.19-2.74,17.91-5.53C1688.08,742.19,1691.18,743.06,1693.42,741.87Z"/><path class="cls-6" d="M1696.26,577.35s-6.36,65-6.36,93.5,6.36,66,6.36,66c-4,1.26-8.53,1-13.37,0a434.45,434.45,0,0,1-10.6-75.22c-.06-1.26-.12-2.53-.16-3.81-.6-16.52,0-33.79,2.83-49.83l-10.77.86s-8,76.71,8.18,128a15.2,15.2,0,0,1-12.74,0s-27.05-83.18-6.36-159.46Z"/><path class="cls-42" d="M1634,524.09s-.32-5.33,4-6.24,7.46-3.31,6.17-4.52-6.45,1.29-7.61,1.18c0,0-.37-8.54,6.31-2.56,2,1.82,4.87.21-1.65-5.22-2.46-2.05-6.6,1.07-6.7.89s2.26-8.9,3-11.93-2.59-3.42-3.46,1.89c-.75,4.57-2.29,9.17-2.55,8.11s.73-6.48.76-8.61-2.6-1.92-3.08,1.06-.61,7.89-.72,8.77a54.65,54.65,0,0,1-1-5.88c-.15-2.22-2.48-2-2.69.18s1.9,11.08,4.41,13.9l-.26,8.93Z"/><path class="cls-42" d="M1675.21,513s1.26,8.13-5.06,13.91l5.16,5.07,13.45-5.61s-3.25-11.56,1.45-21.14S1675.21,513,1675.21,513Z"/><g class="cls-30"><path class="cls-42" d="M1687.67,518a29.3,29.3,0,0,1,1.77-11l-8.69,1.38c-3,2.41-5.54,4.63-5.54,4.63a17,17,0,0,1-.48,6.25C1676.8,520.12,1680.82,520.74,1687.67,518Z"/></g><path class="cls-6" d="M1668.73,483.93s-11-12.94,2.68-19.53,19.25,7.77,24.49,11.56,12.62,5.06,13.47,13.92-16.71,21.37-18.58,24.2c0,0,4.18-8.72,4.24-13.12,0-1.3-1.69-4-5.3-5.18C1688.4,495.36,1671.66,488.8,1668.73,483.93Z"/><path class="cls-42" d="M1674.67,477.2s-10.67,9.94-10.12,22.23c0,0,2.24,1.36,3.52.82,0,0-1.72,15.27,9.67,16.71s23.13-12.65,24.76-21.68-12.29-15.55-12.29-15.55l-14.64-8.67Z"/><path class="cls-6" d="M1672.92,474.38a31.19,31.19,0,0,0,22.9,25.24s-6.58,6.89-5,14.46l6.12-7.09,5.67-7.23,1.63-12.84s-8.82-7.16-9.76-7.58-10.52-4.68-10.8-4.89-6.31-4.19-6.31-4.19l-4.83-.42Z"/><path class="cls-42" d="M1690.36,498.27a5.18,5.18,0,0,1,5.32-1.35c4.06,1.52.36,10.14-5.32,9.72S1690.36,498.27,1690.36,498.27Z"/><path class="cls-41" d="M1673.18,525.8a22.92,22.92,0,0,0,15.44,0l.82,3.73-10.58,26.35-12,18.9-6.08-15,1.38-20.47,5.76-11Z"/><path class="cls-41" d="M1699.66,545.83c1.72,8.44-1.08,40.34-4.88,45.55,0,0-15,11.87-45,1.2-2.33-7.65-2.44-17.1-.21-28.44,0,0-7.46,12.85-18.85,9.77s-7.18-46.1-3.75-51.52c0,0,4.7-3.26,10.12,1.08,0,0-4.08,31.1,1.89,31.1s7.9-17.34,17.65-23.57c8.75-5.59,14.55-5.12,14.55-5.12l-6.63,21.81,4.71,20.42,13-29.1,6.36-13.21Z"/><path class="cls-42" d="M1698.41,583.93s-2.14,4.08-4.74.56-6.09-5.43-6.66-3.76,3.83,5.34,4.21,6.44c0,0-9.18,1.13-14.39,2s-2.39,3.72,3.21,2.61c4-.8,5.2-.32,5.08-.16s-7.75,1.89-10.8,2.5-2,3.77,3.15,2.38c4.47-1.2,8.73-2.23,7.88-1.55s-6.27,2.55-8.22,3.4-.68,3.16,2.23,2.36,7.45-3.06,8.3-3.32a43.74,43.74,0,0,1-4.29,2.76c-2,1.06-.84,3.11,1.27,2.38s8.63-5.39,10.17-8.85l6.57-7.76Z"/><path class="cls-41" d="M1688.62,525.8s17,3.9,25.24,7.39,25.13,15,19.12,33.92c-7,22-38.23,26.58-38.23,26.58l.1-8.54s24.57-8.5,22-26.56c-1.68-11.88-23.91-12-23.91-12l-3.51-17.08Z"/><path class="cls-46" d="M1667.28,526.23l6.25-3.78s-.25,3.27,2.33,4.15a33.88,33.88,0,0,1-5.71,4.71A16.25,16.25,0,0,1,1667.28,526.23Z"/><path class="cls-46" d="M1688,522.45a17.12,17.12,0,0,1-12.16,4.15c-.24,1.66.25,4.09.85,6.62,0,0,10.75-2.43,14.29-6.91Z"/><path class="cls-36" d="M1700.18,547.29a70.35,70.35,0,0,0-10.74-1.23s8.21,11.7,9.89,23.35C1699.33,569.41,1700.69,554.84,1700.18,547.29Z"/><path class="cls-36" d="M1649.55,564.14s1.83-15.08,7-24.45c0,0-14.4,32.39-19.2,34.32C1637.3,574,1643.09,573.71,1649.55,564.14Z"/><path class="cls-2" d="M598.4,776c-5.22-1.44-44.25,5.87-20.4,10.7s76-3.27,42.08-7.72S598.4,776,598.4,776Z"/><path class="cls-42" d="M588.06,710s-3.33,5.76-3.28,18.57,8.4,46.05,8.4,46.05l6.19-.46s6.11-57.6,7-65.77-13-5.74-13-5.74Z"/><path class="cls-42" d="M595.19,768.66l-1.89,5.72s-2.64,4.45-1.66,6l29.41-.26s1.48-1-1.4-3.26-19-2.59-20.18-3.73a22.75,22.75,0,0,0-3.6-3Z"/><path class="cls-10" d="M615,775.34a12.23,12.23,0,0,1,4.66,1.52c2.88,2.24,1.4,3.26,1.4,3.26l-29.41.26c-.86-1.34,1-4.89,1.54-5.79L598.4,776C610.86,779.45,614.25,776,615,775.34Z"/><path class="cls-47" d="M586,613.75s-7.47,7.68-9.91,18S579,651.35,586,654.38c0,0-1,34.8,2.06,55.59h18.32s14.28-40.46,10-95c0-.41-.07-.82-.1-1.23C611.76,558.61,586,613.75,586,613.75Z"/><path class="cls-5" d="M600.55,709.69c4.23-14.5,6.86-60.5,6.89-61v-.23l-.22,0A12.44,12.44,0,0,1,599,643c-4.68-7.12-2.36-18.41-2.34-18.52l-.52-.11c0,.11-2.39,11.62,2.41,18.92a12.93,12.93,0,0,0,8.39,5.62c-.2,3.55-2.79,46.7-6.86,60.61Z"/><path class="cls-48" d="M617.12,628.43A49.31,49.31,0,0,1,580.61,621l1.15-1.87,27.56-1.07,5.63-1.12,1.87.94Z"/><path class="cls-28" d="M602.9,526.69c.6,3.35.84,12.93,5.27,18.55l-7.66-4.9-5.87.83-3.95,8L585.18,552s-3.23-15-3.11-15.56,7.42-7.31,7.42-7.31l9.7-6.58Z"/><g class="cls-30"><path class="cls-28" d="M603.7,532.77a10.75,10.75,0,0,1-6.07-7.28,13.38,13.38,0,0,0-2.61-.16l-3.7,2.51a4.43,4.43,0,0,0,.33,1.6c1.63,4.31,9.7,6.71,12.85,7.49C604.16,535.51,603.9,534.1,603.7,532.77Z"/></g><path class="cls-28" d="M608.45,488c4.11,3.12,9.25,14.44,11.42,24.64l-4.72,3.15s2.29,9.34-1.44,13.43-14.32,5.35-24.87.56-13.67-16.43-12.57-19.5,12.38-14.75,13-15Z"/><path class="cls-6" d="M602.88,488.86s7.28,12.91,14.32.94c4.7-8-4.3-16.9-10.62-14.71s-6.07,5.41-12.7,4.86-20-6.37-27.65,4.5-2.94,23.35,6.6,30.23-32.6,11.69-29.17,37.08,30.22,41.25,54.46,28.79-11.58-30.31-11.58-30.31l-1.9-6.71s16.78-13.87,12.14-23.57c0,0-8.51,2.19-8.88-7.28s5.71-4.59,5.71-4.59S604.79,499.6,602.88,488.86Z"/><path class="cls-10" d="M605.07,539c-1.36,1.36-11,2.48-13.78-2.27,0,0-16.75,6-12.65,27.87s9.11,26.59,6,40.91-3.94,14.1-3.94,14.1a35.21,35.21,0,0,0,37,0,205.08,205.08,0,0,0-5.17-46.25s11.36-6.32,13.14-15.71Z"/><path class="cls-49" d="M623.88,562.38a32.53,32.53,0,0,1-25.45-.52l27.2-3.88A15.52,15.52,0,0,1,623.88,562.38Z"/><path class="cls-28" d="M596.13,545.94c5.67-4,33-1.56,41.69-6.29,6-3.26,25.9-25.13,28.45-27.09s5.43,3,5.43,3-20,33.52-30.14,37.79-36.34,10.22-45.25,6C590.62,556.62,592.07,548.78,596.13,545.94Z"/><path class="cls-10" d="M619.17,542.42c-.26.48.18,14.67,2.14,18.38,0,0-28.89,8-30-7.26S619.17,542.42,619.17,542.42Z"/><path class="cls-5" d="M618.48,560.9l.5-.2c-3.41-8.46-1.53-18.35-1.51-18.45l-.53-.1C616.92,542.25,615,552.29,618.48,560.9Z"/><path class="cls-28" d="M667.38,516s-3.49-6,.14-10.57,5-7.15,6.06-5.37-2.68,7.25-2.68,7.25,4.06-3.82,6-5.88c2.37-2.53,6.14-7.73,8.76-6.75,1.58.59-6.47,8.14-6.47,8.14s10-9.2,11.4-7.51c1.84,2.15-7.86,7.53-7.86,7.53s8.3-5.53,9-4c1,2.18-8.19,8.31-8.19,8.31s6.74-4.45,8.19-3.87-6.49,5.7-8.46,6.84L669,518.35Z"/></g></g></g></svg>