<?xml version="1.0" encoding="utf-8"?>
<!-- Generator: Adobe Illustrator 25.0.0, SVG Export Plug-In . SVG Version: 6.00 Build 0)  -->
<svg version="1.1" id="Layer_1" xmlns="http://www.w3.org/2000/svg" xmlns:xlink="http://www.w3.org/1999/xlink" x="0px" y="0px"
	 viewBox="0 0 1920.2 1075.6" style="enable-background:new 0 0 1920.2 1075.6;" xml:space="preserve">
<style type="text/css">
	.st0{opacity:0.11;fill:#008891;enable-background:new    ;}
	.st1{fill:#008891;}
	.st2{clip-path:url(#SVGID_2_);}
	.st3{opacity:0.14;fill:none;stroke:#34626C;stroke-width:128;enable-background:new    ;}
</style>
<path id="Path_195" class="st0" d="M0,607.4c0,0,100.4,239.9,401.2,191.5s442.1,9.6,537.6,114.9s352.1,94.3,581,52.4
	s363.2,41.8,400.4,109.4c0,0-0.4-1075.6-0.4-1075.6L0,0L0,607.4z"/>
<path id="Path_194" class="st1" d="M0.1,607.6c0,0,95.3,204.2,401.2,161.1c305.9-43,419.7-32.1,544.2,96.9s344,107.5,572.9,67.1
	s360.2,68.2,401.8,143c0-2.4-0.1-1075.6-0.1-1075.6L0.1,0L0.1,607.6z"/>
<g>
	<defs>
		<path id="SVGID_1_" d="M0.1,607.6c0,0,95.3,204.2,401.2,161.1c305.9-43,419.7-32.1,544.2,96.9s344,107.5,572.9,67.1
			s360.2,68.2,401.8,143c0-2.4-0.1-1075.6-0.1-1075.6L0.1,0L0.1,607.6z"/>
	</defs>
	<clipPath id="SVGID_2_">
		<use xlink:href="#SVGID_1_"  style="overflow:visible;"/>
	</clipPath>
	<g id="Mask_Group_6" class="st2">
		<path id="Path_4" class="st3" d="M25.7,687.7c0,0,174.2-392,817.4-255s869.4,77.5,1056.2-464"/>
	</g>
</g>
</svg>
