<svg xmlns="http://www.w3.org/2000/svg" viewBox="0 0 397.7 101.87"><defs><style>.cls-1{fill:#008891;}.cls-2{fill:#00587a;}.cls-3{fill:#34626c;}.cls-4{fill:#0f3057;}</style></defs><g id="Layer_2" data-name="Layer 2"><g id="Layer_1-2" data-name="Layer 1"><path class="cls-1" d="M71.81,80.26c-.4,8.31-.71,14.27-1,20.24,0,.89-.31,1.18-1.21,1.17q-14.16,0-28.32,0c-1,0-1.23-.37-1.23-1.3q0-15-.11-29.92c0-1.11.48-1.35,1.36-1.49q15.06-2.47,30.11-5c1.11-.19,1.09.24,1,1.07C72.21,70.89,72,76.75,71.81,80.26Z"/><path class="cls-2" d="M39.9,51.44c0-4.42,0-8.85,0-13.27,0-1.14.23-1.55,1.46-1.62q16.29-.93,32.56-2c1.3-.09,1.5.27,1.39,1.44Q74.19,47.53,73.2,59.07c-.08,1-.4,1.42-1.47,1.6q-15.11,2.64-30.19,5.44c-1.44.27-1.55-.22-1.54-1.39,0-4.42,0-8.85,0-13.28Z"/><path class="cls-3" d="M6.26,101.87c-1.13,0-1.66-.17-1.77-1.37-.6-6.38-1.32-12.75-2.06-19.13-.13-1.11.66-1.23,1.46-1.48,7.22-2.28,25-7.86,26.62-8.42.95-.33,1.45-.3,1.54.79.52,6.39,2.14,25.13,2.5,28.1.13,1.1-.07,1.53-1.43,1.51C28.59,101.81,10.68,101.83,6.26,101.87Z"/><path class="cls-4" d="M30.46,68C26,69.74,5.77,75,2,75.43a.58.58,0,0,1-.64-.55C.49,66-.33,42,.13,37.6a.87.87,0,0,1,.8-.67q14.34.3,28.67.47c.88,0,1.24.44,1.21,2.17-.06,3,.88,23.09.57,27.45A1.6,1.6,0,0,1,30.46,68Z"/><path class="cls-4" d="M39,32.79c2.9-3,5.69-5.49,8.55-7.93,7-5.92,14.21-11.41,22.64-15.1a30.55,30.55,0,0,1,9.34-2.59,12.37,12.37,0,0,1,4.12.29c3.63.87,5,4,3.12,7.27A11.17,11.17,0,0,1,82.12,19a131.72,131.72,0,0,1-31,11.45C47.22,31.35,43.32,32.12,39,32.79Z"/><path class="cls-1" d="M34.61,31.46c-.17-.14-.17-.53-.17-.77,0-.77,0-1.54-.07-2.31a125.16,125.16,0,0,1,0-13.28c.23-2.69.54-5.45,1-8.1A7.21,7.21,0,0,1,38,2.35,11.19,11.19,0,0,1,42.85.11c4.6-.75,7.66,2.57,7.08,7.55a26.06,26.06,0,0,1-2.75,8.61,47.63,47.63,0,0,1-6.35,9c-1.13,1.35-2.29,2.67-3.51,3.93A13.13,13.13,0,0,1,35,31.41C34.81,31.52,34.69,31.52,34.61,31.46Z"/><path class="cls-2" d="M27.68,29.85a49.11,49.11,0,0,1-16.8-5.32,4.2,4.2,0,0,1-1.13-.88A2.46,2.46,0,0,1,9,21.32c.26-1,1.15-1.24,2-1.34a9.1,9.1,0,0,1,4.8,1C20.42,23,24.12,26.31,27.68,29.85Z"/></g><g id="Layer_2-2" data-name="Layer 2"><path class="cls-1" d="M127.8,76.82,133.06,49h8l-8.67,39.1h-8.11l-6.37-26.15-6.36,26.15h-8.11L94.79,49h8l5.29,27.77L114.56,49h6.82Z"/><path class="cls-1" d="M153.46,88.09H145.4V49h8.06Z"/><path class="cls-1" d="M180.65,77.84A4.15,4.15,0,0,0,179,74.33a21.42,21.42,0,0,0-5.8-2.58,40.23,40.23,0,0,1-6.63-2.67Q160,65.48,160,59.39a9.45,9.45,0,0,1,1.78-5.66,11.68,11.68,0,0,1,5.13-3.88,19.33,19.33,0,0,1,7.51-1.39A17.56,17.56,0,0,1,181.83,50a11.9,11.9,0,0,1,5.09,4.29,11.18,11.18,0,0,1,1.81,6.28h-8A5.28,5.28,0,0,0,179,56.37a7,7,0,0,0-4.76-1.5,7.43,7.43,0,0,0-4.59,1.25A4,4,0,0,0,168,59.41a3.78,3.78,0,0,0,1.92,3.2A22,22,0,0,0,175.58,65q6.87,2.06,10,5.13a10.18,10.18,0,0,1,3.14,7.62,9.42,9.42,0,0,1-3.84,8q-3.84,2.88-10.33,2.88A20,20,0,0,1,166.34,87a13.06,13.06,0,0,1-5.66-4.52,11.66,11.66,0,0,1-1.94-6.66h8.08q0,6.47,7.74,6.47A7.5,7.5,0,0,0,179,81.1,3.81,3.81,0,0,0,180.65,77.84Z"/><path class="cls-1" d="M225.46,88.09H217.4V71.34H201.69V88.09h-8.05V49h8.05V64.84H217.4V49h8.06Z"/><path class="cls-4" d="M244.51,70.67q-6.63-1.92-9.65-4.69a9,9,0,0,1-3-6.86,9.45,9.45,0,0,1,3.69-7.64,14.63,14.63,0,0,1,9.6-3A16.16,16.16,0,0,1,252.32,50a11.77,11.77,0,0,1,4.88,4.3,11,11,0,0,1,1.74,6h-5.19a7.15,7.15,0,0,0-2.25-5.59,9.18,9.18,0,0,0-6.37-2,9.42,9.42,0,0,0-5.95,1.68A5.63,5.63,0,0,0,237.05,59a5,5,0,0,0,2,4,20,20,0,0,0,6.9,3,32,32,0,0,1,7.63,3A11.63,11.63,0,0,1,257.69,73,9.86,9.86,0,0,1,259,78.16a9.12,9.12,0,0,1-3.71,7.61q-3.7,2.87-9.91,2.86a18.36,18.36,0,0,1-7.52-1.54,12.62,12.62,0,0,1-5.38-4.23,10.27,10.27,0,0,1-1.9-6.1h5.19a6.72,6.72,0,0,0,2.62,5.6,11,11,0,0,0,7,2.06,10.15,10.15,0,0,0,6.26-1.67,5.4,5.4,0,0,0,2.17-4.54,5.3,5.3,0,0,0-2-4.44Q249.81,72.19,244.51,70.67Z"/><path class="cls-4" d="M295.12,88.09h-5.18V70H270.23V88.09h-5.16V49h5.16V65.8h19.71V49h5.18Z"/><path class="cls-4" d="M325.81,77.86H309.42l-3.67,10.23h-5.32L315.36,49h4.51l15,39.1h-5.29ZM311,73.65h13.3l-6.66-18.29Z"/><path class="cls-4" d="M353.88,72.28H344.7V88.09h-5.18V49h12.94c4.41,0,7.79,1,10.17,3s3.55,4.92,3.55,8.76a10.5,10.5,0,0,1-2,6.36,11.85,11.85,0,0,1-5.49,4.06l9.18,16.59v.32h-5.53Zm-9.18-4.22h7.92a8.92,8.92,0,0,0,6.11-2A6.74,6.74,0,0,0,361,60.74a7.11,7.11,0,0,0-2.16-5.57q-2.16-1.94-6.25-2H344.7Z"/><path class="cls-4" d="M395,70H378V83.88H397.7v4.21H372.86V49h24.57v4.22H378V65.8H395Z"/></g></g></svg>