<svg id="Layer_1" data-name="Layer 1" xmlns="http://www.w3.org/2000/svg" viewBox="0 0 64 64"><defs><style>.cls-1{fill:#34626c;}.cls-2{fill:#e7e7de;}</style></defs><g id="Layer_2" data-name="Layer 2"><circle class="cls-1" cx="32" cy="31.92" r="27.63"/></g><path class="cls-2" d="M14.93,29.3h28.8L41,25.6a2.9,2.9,0,0,1,.5-3.7,2.9,2.9,0,0,1,3.71.5l4.5,6.4a5.26,5.26,0,0,1,0,6.1l-4.5,6.4a2.37,2.37,0,0,1-2.1,1.1,5,5,0,0,1-1.61-.5,2.49,2.49,0,0,1-.5-3.7l2.71-3.7H14.93a2.57,2.57,0,0,1-2.7-2.7A2.53,2.53,0,0,1,14.93,29.3Z"/><path class="cls-1" d="M32,0A32,32,0,1,0,64,32,32.09,32.09,0,0,0,32,0Zm0,58.7A26.7,26.7,0,1,1,58.7,32,26.76,26.76,0,0,1,32,58.7Z"/></svg>