<svg xmlns="http://www.w3.org/2000/svg" viewBox="0 0 624 624"><defs><style>.cls-1{fill-rule:evenodd;}</style></defs><g id="Master_Layer_7" data-name="Master Layer 7"><path class="cls-1" d="M312.5.5h0c171.6,0,312,140.4,312,312h0c0,171.6-140.4,312-312,312h0c-171.6,0-312-140.4-312-312h0C.5,140.9,140.9.5,312.5.5Zm0,34.56C159.91,35.06,35.06,159.91,35.06,312.5h0c0,152.59,124.85,277.44,277.44,277.44h0c152.59,0,277.44-124.85,277.44-277.44h0c0-152.59-124.85-277.44-277.44-277.44Z"/></g><g id="Layer_1" data-name="Layer 1"><rect x="279.8" y="429.28" width="67.54" height="67.54" rx="5.76"/><path d="M342.32,416.68h-64a5.76,5.76,0,0,1-5.76-5.76c0-.13,0-.26,0-.39-.08-4.34-.14-7.89-.18-10.68-.06-3.79-.09-5.73-.09-5.81A149.24,149.24,0,0,1,275,364.57a93.22,93.22,0,0,1,8.22-24.3h0v0h0a1.14,1.14,0,0,1,.1-.19q5.49-10.68,16.24-22.43a251,251,0,0,1,26.38-24.46q15.13-12.3,24.46-20.6,8.81-7.86,11.42-11.32h0a4.42,4.42,0,0,1,.39-.47A39.61,39.61,0,0,0,368,250a37.74,37.74,0,0,0,2-12.36c0-12-4.84-22.31-14.52-31h0l0,0h0l-.16-.15a48.74,48.74,0,0,0-17.08-9.66A74,74,0,0,0,315,193.43,70.15,70.15,0,0,0,292.18,197a56.69,56.69,0,0,0-18.47,10.44,59.45,59.45,0,0,0-13.88,17.66,100.32,100.32,0,0,0-9.06,25.88h0a5.75,5.75,0,0,1-6.51,4.47l-64.52-8h0a5.76,5.76,0,0,1-5-6.43v0a111.73,111.73,0,0,1,11.49-43.4A121.12,121.12,0,0,1,214.86,161l3.8,4.3L214.84,161l.21-.17a124.2,124.2,0,0,1,42.89-24.48q24.26-8.16,54.05-8.16,31.2,0,56.25,8.24a125,125,0,0,1,44.22,25q18.8,16.65,28.29,36.14a95,95,0,0,1,9.57,42.11A84.35,84.35,0,0,1,446.77,264a93,93,0,0,1-10.54,22.93l-4.86-3.06,4.87,3.07-.15.23q-7,10.86-21.44,25.44-14.2,14.3-36,32.4a193.44,193.44,0,0,0-17.58,16.29q-6.33,6.81-8.65,11.69T349,386.9a179,179,0,0,0-.94,23.92h0a5.75,5.75,0,0,1-5.65,5.86Z"/></g></svg>